SplineFontDB: 3.2
FontName: Syd-1
FullName: Sydrandria
FamilyName: Sydrandria
Weight: Book
Copyright: CAT2001
Version: 1.02
ItalicAngle: 0
UnderlinePosition: -143
UnderlineWidth: 20
Ascent: 800
Descent: 200
InvalidEm: 0
sfntRevision: 0x00016666
LayerCount: 2
Layer: 0 1 "Back" 1
Layer: 1 1 "Fore" 0
XUID: [1021 352 1975664843 11949876]
StyleMap: 0x0040
FSType: 0
OS2Version: 1
OS2_WeightWidthSlopeOnly: 0
OS2_UseTypoMetrics: 0
CreationTime: 1015109822
ModificationTime: 1743266384
PfmFamily: 81
TTFWeight: 400
TTFWidth: 7
LineGap: 0
VLineGap: 0
Panose: 5 7 4 4 8 3 0 2 9 2
OS2TypoAscent: 800
OS2TypoAOffset: 0
OS2TypoDescent: 200
OS2TypoDOffset: 0
OS2TypoLinegap: 10
OS2WinAscent: 800
OS2WinAOffset: 0
OS2WinDescent: 196
OS2WinDOffset: 0
HheadAscent: 800
HheadAOffset: 0
HheadDescent: -200
HheadDOffset: 0
OS2SubXSize: 700
OS2SubYSize: 650
OS2SubXOff: 0
OS2SubYOff: 300
OS2SupXSize: 700
OS2SupYSize: 650
OS2SupXOff: 0
OS2SupYOff: 453
OS2StrikeYSize: 50
OS2StrikeYPos: 259
OS2FamilyClass: 2567
OS2Vendor: 'Uncl'
OS2CodePages: 00000001.00000000
OS2UnicodeRanges: 00000001.00000000.00000000.00000000
Lookup: 258 0 0 "'kern' Horizontal Kerning in Latin lookup 0" { "'kern' Horizontal Kerning in Latin lookup 0 subtable"  } ['kern' ('DFLT' <'dflt' > 'latn' <'dflt' > ) ]
DEI: 91125
TtTable: prep
NPUSHB
 14
 30
 30
 29
 29
 12
 12
 3
 3
 0
 0
 16
 16
 69
 1
SCANTYPE
PUSHW_1
 511
SCANCTRL
SROUND
RCVT
ROUND[Grey]
WCVTP
RTG
PUSHB_4
 1
 0
 70
 0
CALL
PUSHB_4
 2
 0
 70
 0
CALL
PUSHB_4
 4
 3
 70
 0
CALL
PUSHB_4
 5
 16
 70
 0
CALL
PUSHB_4
 6
 3
 70
 0
CALL
PUSHB_4
 7
 3
 70
 0
CALL
PUSHB_4
 8
 3
 70
 0
CALL
PUSHB_4
 9
 3
 70
 0
CALL
PUSHB_4
 10
 3
 70
 0
CALL
PUSHB_4
 11
 12
 70
 0
CALL
PUSHB_4
 13
 16
 70
 0
CALL
PUSHB_4
 14
 12
 70
 0
CALL
PUSHB_4
 15
 12
 70
 0
CALL
PUSHB_4
 17
 12
 70
 0
CALL
PUSHB_4
 18
 16
 70
 0
CALL
PUSHB_4
 19
 12
 70
 0
CALL
PUSHB_4
 20
 12
 70
 0
CALL
PUSHB_4
 21
 12
 70
 0
CALL
PUSHB_4
 22
 16
 70
 0
CALL
PUSHB_4
 23
 16
 70
 0
CALL
PUSHB_4
 24
 16
 70
 0
CALL
PUSHB_4

StartChar: zero
Encoding: 48 48 1
Width: 737
GlyphClass: 1
Flags: W
LayerCount: 2
Fore
SplineSet
365 3 m 1,0,1
 368 -33 368 -33 387 -107 c 0,2,3
 404 -171 404 -171 406 -198 c 1,4,5
 399 -209 399 -209 368 -209 c 0,6,7
 350 -209 350 -209 330.5 -206 c 128,-1,8
 311 -203 311 -203 297 -198 c 0,9,10
 297 -195 297 -195 297 -190 c 0,11,12
 296 -184 296 -184 296 -181 c 0,13,14
 296 -155 296 -155 309 -88 c 0,15,16
 321 -26 321 -26 323 3 c 1,17,18
 300 4 300 4 265 12 c 128,-1,19
 230 20 230 20 207 29 c 0,20,21
 179 40 179 40 145 69.5 c 128,-1,22
 111 99 111 99 91 131 c 0,23,24
 72 159 72 159 57 203 c 128,-1,25
 42 247 42 247 40 283 c 0,26,27
 40 327 40 327 49 369.5 c 128,-1,28
 58 412 58 412 73 445 c 0,29,30
 81 461 81 461 94.5 479.5 c 128,-1,31
 108 498 108 498 124 516 c 128,-1,32
 140 534 140 534 157 549 c 128,-1,33
 174 564 174 564 187 573 c 0,34,35
 212 586 212 586 256 593 c 128,-1,36
 300 600 300 600 337 600 c 0,37,38
 355 600 355 600 379 600 c 0,39,40
 438 599 438 599 493 599 c 0,41,42
 532 599 532 599 582.5 612 c 128,-1,43
 633 625 633 625 689 651 c 1,44,45
 693 642 693 642 695 622 c 128,-1,46
 697 602 697 602 697 579 c 0,47,48
 697 552 697 552 694 530 c 128,-1,49
 691 508 691 508 685 504 c 1,50,51
 623 534 623 534 581.5 548 c 128,-1,52
 540 562 540 562 493 570 c 0,53,54
 486 570 486 570 464 571 c 0,55,56
 446 571 446 571 437 571 c 0,57,58
 424 571 424 571 382 571 c 0,59,60
 350 570 350 570 336 570 c 0,61,62
 307 570 307 570 267.5 561.5 c 128,-1,63
 228 553 228 553 204 542 c 0,64,65
 193 534 193 534 178 520.5 c 128,-1,66
 163 507 163 507 147.5 491.5 c 128,-1,67
 132 476 132 476 120 461.5 c 128,-1,68
 108 447 108 447 102 438 c 0,69,70
 89 407 89 407 79.5 365.5 c 128,-1,71
 70 324 70 324 70 282 c 0,72,73
 73 252 73 252 88 210 c 128,-1,74
 103 168 103 168 121 141 c 0,75,76
 137 119 137 119 167 95 c 128,-1,77
 197 71 197 71 223 59 c 0,78,79
 233 55 233 55 250.5 50 c 128,-1,80
 268 45 268 45 286.5 40.5 c 128,-1,81
 305 36 305 36 323.5 33 c 128,-1,82
 342 30 342 30 355 30 c 0,83,84
 367 30 367 30 383 34.5 c 128,-1,85
 399 39 399 39 416 45.5 c 128,-1,86
 433 52 433 52 449.5 60 c 128,-1,87
 466 68 466 68 477 74 c 0,88,89
 496 86 496 86 519 110.5 c 128,-1,90
 542 135 542 135 551 155 c 0,91,92
 560 179 560 179 567.5 217.5 c 128,-1,93
 575 256 575 256 575 281 c 0,94,95
 574 302 574 302 561.5 330 c 128,-1,96
 549 358 549 358 531 387 c 0,97,98
 514 410 514 410 499 423.5 c 128,-1,99
 484 437 484 437 458 451 c 0,100,101
 438 459 438 459 407 465.5 c 128,-1,102
 376 472 376 472 353 473 c 0,103,104
 336 473 336 473 312.5 463 c 128,-1,105
 289 453 289 453 267 439 c 0,106,107
 246 424 246 424 233 410.5 c 128,-1,108
 220 397 220 397 212 376 c 0,109,110
 194 329 194 329 194 295 c 2,111,112
 194 295 194 295 194 289 c 0,113,114
 194 285 194 285 194 283 c 0,115,116
 196 267 196 267 206 246 c 128,-1,117
 216 225 216 225 230 204 c 0,118,119
 241 190 241 190 251.5 182.5 c 128,-1,120
 262 175 262 175 282 166 c 0,121,122
 317 156 317 156 357 156 c 0,123,124
 369 156 369 156 381 162.5 c 128,-1,125
 393 169 393 169 409 181 c 0,126,127
 410 182 410 182 413 184 c 0,128,129
 434 199 434 199 446 226 c 1,130,131
 446 226 446 226 447 233 c 2,132,133
 452 252 452 252 452 262 c 256,134,135
 452 272 452 272 449 282 c 0,136,137
 447 299 447 299 430 321 c 0,138,139
 418 340 418 340 399 347 c 0,140,141
 390 350 390 350 380 350 c 0,142,143
 369 350 369 350 354 347 c 1,144,145
 367 340 367 340 374.5 334 c 128,-1,146
 382 328 382 328 389 318 c 0,147,148
 393 309 393 309 393 296 c 0,149,150
 393 295 393 295 393 289 c 0,151,152
 392 284 392 284 392 280 c 0,153,154
 389 264 389 264 368 235 c 1,155,156
 368 235 368 235 367 234 c 1,157,-1
 366 233 l 2,158,159
 358 227 358 227 351 224 c 128,-1,160
 344 221 344 221 333 219 c 1,161,162
 321 222 321 222 302 240 c 0,163,164
 301 240 301 240 299 242 c 0,165,166
 284 259 284 259 284 284 c 0,167,168
 284 307 284 307 288 320 c 0,169,170
 297 345 297 345 312 356 c 0,171,172
 319 362 319 362 332 368.5 c 128,-1,173
 345 375 345 375 354 377 c 0,174,175
 362 379 362 379 373 379 c 0,176,177
 392 379 392 379 406 374 c 0,178,179
 440 363 440 363 454 341 c 0,180,181
 460 332 460 332 467.5 315 c 128,-1,182
 475 298 475 298 480 283 c 1,183,184
 480 257 480 257 478.5 242.5 c 128,-1,185
 477 228 477 228 472 215 c 0,186,187
 464 195 464 195 454 181 c 128,-1,188
 444 167 444 167 427 156 c 0,189,190
 406 143 406 143 386.5 135 c 128,-1,191
 367 127 367 127 354 126 c 0,192,193
 331 126 331 126 308 129 c 128,-1,194
 285 132 285 132 270 138 c 0,195,196
 252 144 252 144 231.5 160 c 128,-1,197
 211 176 211 176 200 194 c 0,198,199
 174 242 174 242 165 283 c 0,200,201
 163 294 163 294 163 307 c 0,202,203
 163 341 163 341 182 382 c 0,204,205
 195 406 195 406 213 429 c 128,-1,206
 231 452 231 452 249 464 c 0,207,208
 271 479 271 479 302.5 491 c 128,-1,209
 334 503 334 503 354 503 c 0,210,211
 406 503 406 503 469 482 c 0,212,213
 495 470 495 470 518.5 451.5 c 128,-1,214
 542 433 542 433 563 403 c 0,215,216
 582 373 582 373 593 342 c 128,-1,217
 604 311 604 311 605 282 c 0,218,219
 605 219 605 219 581 152 c 0,220,221
 570 121 570 121 543.5 91 c 128,-1,222
 517 61 517 61 490 47 c 0,223,224
 461 30 461 30 429.5 18 c 128,-1,225
 398 6 398 6 365 3 c 1,0,1
EndSplineSet
Validated: 1
EndChar

StartChar: one
Encoding: 49 49 2
Width: 911
GlyphClass: 1
Flags: W
LayerCount: 2
Fore
SplineSet
797 646 m 0,0,1
 758 703 758 703 685 703 c 0,2,3
 644 703 644 703 608 679 c 0,4,5
 584 661 584 661 569 632.5 c 128,-1,6
 554 604 554 604 554 574 c 0,7,8
 554 529 554 529 579 494 c 0,9,10
 597 467 597 467 626.5 452 c 128,-1,11
 656 437 656 437 688 437 c 0,12,13
 728 437 728 437 764 461 c 0,14,15
 791 479 791 479 806 508.5 c 128,-1,16
 821 538 821 538 821 570 c 0,17,18
 821 610 821 610 797 646 c 0,0,1
506 554 m 1,19,-1
 60 116 l 1,20,-1
 40 156 l 1,21,-1
 509 609 l 1,22,23
 517 643 517 643 534.5 670 c 128,-1,24
 552 697 552 697 584 720 c 0,25,26
 632 753 632 753 688 753 c 0,27,28
 730 753 730 753 770 733 c 128,-1,29
 810 713 810 713 838 674 c 0,30,31
 871 626 871 626 871 570 c 0,32,33
 871 527 871 527 850.5 486.5 c 128,-1,34
 830 446 830 446 792 420 c 0,35,36
 744 387 744 387 688 387 c 0,37,38
 643 387 643 387 603.5 408 c 128,-1,39
 564 429 564 429 538 466 c 0,40,41
 533 473 533 473 527 484 c 128,-1,42
 521 495 521 495 515 509 c 0,43,44
 506 533 506 533 506 554 c 1,19,-1
EndSplineSet
Validated: 1
EndChar

StartChar: two
Encoding: 50 50 3
Width: 911
GlyphClass: 1
Flags: W
LayerCount: 2
Fore
SplineSet
797 646 m 0,0,1
 758 703 758 703 685 703 c 0,2,3
 644 703 644 703 608 679 c 0,4,5
 584 661 584 661 569 632.5 c 128,-1,6
 554 604 554 604 554 574 c 0,7,8
 554 529 554 529 579 494 c 0,9,10
 597 467 597 467 626.5 452 c 128,-1,11
 656 437 656 437 688 437 c 0,12,13
 728 437 728 437 764 461 c 0,14,15
 791 479 791 479 806 508.5 c 128,-1,16
 821 538 821 538 821 570 c 0,17,18
 821 610 821 610 797 646 c 0,0,1
506 548 m 1,19,-1
 60 116 l 1,20,-1
 40 156 l 1,21,-1
 509 610 l 1,22,23
 524 675 524 675 584 720 c 0,24,25
 632 753 632 753 688 753 c 0,26,27
 730 753 730 753 770 733 c 128,-1,28
 810 713 810 713 838 674 c 0,29,30
 871 626 871 626 871 570 c 0,31,32
 871 527 871 527 850.5 486.5 c 128,-1,33
 830 446 830 446 792 420 c 0,34,35
 744 387 744 387 688 387 c 0,36,37
 613 387 613 387 557 442 c 1,38,-1
 116 16 l 1,39,-1
 96 56 l 1,40,-1
 531 476 l 1,41,42
 522 490 522 490 515 511 c 2,43,-1
 506 548 l 1,19,-1
EndSplineSet
Validated: 1
EndChar

StartChar: three
Encoding: 51 51 4
Width: 1036
GlyphClass: 1
Flags: W
LayerCount: 2
Fore
SplineSet
797 646 m 0,0,1
 758 703 758 703 685 703 c 0,2,3
 644 703 644 703 608 679 c 0,4,5
 584 661 584 661 569 632.5 c 128,-1,6
 554 604 554 604 554 574 c 0,7,8
 554 529 554 529 579 494 c 0,9,10
 597 467 597 467 626.5 452 c 128,-1,11
 656 437 656 437 688 437 c 0,12,13
 728 437 728 437 764 461 c 0,14,15
 791 479 791 479 806 508.5 c 128,-1,16
 821 538 821 538 821 570 c 0,17,18
 821 610 821 610 797 646 c 0,0,1
857 501 m 1,19,-1
 996 320 l 1,20,-1
 960 284 l 1,21,-1
 827 451 l 1,22,23
 810 432 810 432 792 420 c 0,24,25
 744 387 744 387 688 387 c 0,26,27
 613 387 613 387 557 442 c 1,28,-1
 116 16 l 1,29,-1
 96 56 l 1,30,-1
 531 476 l 1,31,32
 522 490 522 490 515 511 c 2,33,-1
 506 548 l 1,34,-1
 60 116 l 1,35,-1
 40 156 l 1,36,-1
 509 610 l 1,37,38
 524 675 524 675 584 720 c 0,39,40
 632 753 632 753 688 753 c 0,41,42
 730 753 730 753 770 733 c 128,-1,43
 810 713 810 713 838 674 c 0,44,45
 871 626 871 626 871 570 c 0,46,47
 871 552 871 552 868 535.5 c 128,-1,48
 865 519 865 519 857 501 c 1,19,-1
EndSplineSet
Validated: 1
EndChar

StartChar: four
Encoding: 52 52 5
Width: 1058
GlyphClass: 1
Flags: W
LayerCount: 2
Fore
SplineSet
500 430 m 1,0,-1
 568 430 l 2,1,2
 589 433 589 433 613.5 450 c 128,-1,3
 638 467 638 467 653 496.5 c 128,-1,4
 668 526 668 526 668 558 c 0,5,6
 668 598 668 598 644 634 c 0,7,8
 605 691 605 691 532 691 c 0,9,10
 491 691 491 691 455 667 c 0,11,12
 431 649 431 649 416 620.5 c 128,-1,13
 401 592 401 592 401 562 c 0,14,15
 401 516 401 516 427 480.5 c 128,-1,16
 453 445 453 445 500 430 c 1,0,-1
664 429 m 1,17,18
 689 429 689 429 707 427 c 128,-1,19
 725 425 725 425 752 418 c 2,20,-1
 843 392 l 1,21,22
 884 392 884 392 920 371 c 128,-1,23
 956 350 956 350 985 310 c 0,24,25
 1018 262 1018 262 1018 206 c 0,26,27
 1018 163 1018 163 997.5 122.5 c 128,-1,28
 977 82 977 82 939 56 c 0,29,30
 892 24 892 24 839 24 c 0,31,32
 819 24 819 24 809.5 30.5 c 128,-1,33
 800 37 800 37 799 48 c 0,34,35
 799 58 799 58 808 67 c 128,-1,36
 817 76 817 76 835 76 c 0,37,38
 859 76 859 76 877 80.5 c 128,-1,39
 895 85 895 85 911 97 c 0,40,41
 938 115 938 115 953 144.5 c 128,-1,42
 968 174 968 174 968 206 c 0,43,44
 968 246 968 246 944 282 c 0,45,46
 929 303 929 303 899 318 c 0,47,48
 877 328 877 328 838.5 337 c 128,-1,49
 800 346 800 346 761 352 c 128,-1,50
 722 358 722 358 678 363.5 c 128,-1,51
 634 369 634 369 589.5 372 c 128,-1,52
 545 375 545 375 513 375 c 0,53,54
 454 375 454 375 431 373.5 c 128,-1,55
 408 372 408 372 368.5 367.5 c 128,-1,56
 329 363 329 363 298 358 c 128,-1,57
 267 353 267 353 223 344 c 2,58,-1
 180 337 l 2,59,60
 158 334 158 334 143 323 c 0,61,62
 119 305 119 305 104 276.5 c 128,-1,63
 89 248 89 248 89 218 c 0,64,65
 89 173 89 173 114 138 c 0,66,67
 131 112 131 112 163 97 c 0,68,69
 196 84 196 84 227 84 c 0,70,71
 239 84 239 84 254 75.5 c 128,-1,72
 269 67 269 67 269 58 c 0,73,74
 269 42 269 42 223 36 c 2,75,-1
 206 35 l 2,76,77
 167 35 167 35 133 54.5 c 128,-1,78
 99 74 99 74 73 110 c 0,79,80
 40 158 40 158 40 214 c 0,81,82
 40 258 40 258 60.5 297 c 128,-1,83
 81 336 81 336 119 364 c 0,84,85
 170 400 170 400 227 400 c 1,86,87
 271 413 271 413 317 421.5 c 128,-1,88
 363 430 363 430 405 430 c 1,89,-1
 385 454 l 1,90,91
 352 502 352 502 352 558 c 0,92,93
 352 602 352 602 372.5 641 c 128,-1,94
 393 680 393 680 431 708 c 0,95,96
 479 741 479 741 535 741 c 0,97,98
 582 741 582 741 620.5 721 c 128,-1,99
 659 701 659 701 685 662 c 0,100,101
 718 614 718 614 718 558 c 0,102,103
 718 483 718 483 664 429 c 1,17,18
EndSplineSet
Validated: 1
EndChar

StartChar: five (10)
Encoding: 53 53 6
Width: 911
GlyphClass: 1
Flags: W
LayerCount: 2
Fore
SplineSet
332 292 m 0,0,1
 314 319 314 319 284.5 334 c 128,-1,2
 255 349 255 349 223 349 c 0,3,4
 183 349 183 349 147 325 c 0,5,6
 120 307 120 307 105 277.5 c 128,-1,7
 90 248 90 248 90 216 c 0,8,9
 90 176 90 176 114 140 c 0,10,11
 153 83 153 83 226 83 c 0,12,13
 267 83 267 83 303 107 c 0,14,15
 327 125 327 125 342 153.5 c 128,-1,16
 357 182 357 182 357 212 c 0,17,18
 357 257 357 257 332 292 c 0,0,1
404 238 m 1,19,-1
 851 670 l 1,20,-1
 871 630 l 1,21,-1
 402 176 l 1,22,23
 395 145 395 145 376 116 c 128,-1,24
 357 87 357 87 327 66 c 0,25,26
 279 33 279 33 223 33 c 0,27,28
 178 33 178 33 138.5 54 c 128,-1,29
 99 75 99 75 73 112 c 0,30,31
 40 160 40 160 40 216 c 0,32,33
 40 260 40 260 60.5 299 c 128,-1,34
 81 338 81 338 119 366 c 0,35,36
 167 399 167 399 223 399 c 0,37,38
 265 399 265 399 305.5 378.5 c 128,-1,39
 346 358 346 358 372 320 c 0,40,41
 398 286 398 286 404 238 c 1,19,-1
EndSplineSet
Validated: 513
EndChar

StartChar: six (11)
Encoding: 54 54 7
Width: 911
GlyphClass: 1
Flags: W
LayerCount: 2
Fore
SplineSet
353 343 m 1,0,-1
 795 770 l 1,1,-1
 815 730 l 1,2,-1
 380 310 l 1,3,-1
 396 275 l 2,4,5
 400 262 400 262 404 238 c 1,6,-1
 851 670 l 1,7,-1
 871 630 l 1,8,-1
 402 176 l 1,9,10
 395 145 395 145 376 116 c 128,-1,11
 357 87 357 87 327 66 c 0,12,13
 279 33 279 33 223 33 c 0,14,15
 178 33 178 33 138.5 54 c 128,-1,16
 99 75 99 75 73 112 c 0,17,18
 40 160 40 160 40 216 c 0,19,20
 40 260 40 260 60.5 299 c 128,-1,21
 81 338 81 338 119 366 c 0,22,23
 167 399 167 399 222 399 c 0,24,25
 298 399 298 399 353 343 c 1,0,-1
340 278 m 1,26,-1
 327 299 l 1,27,-1
 325 302 l 1,28,29
 306 323 306 323 278.5 336 c 128,-1,30
 251 349 251 349 222 349 c 0,31,32
 183 349 183 349 147 325 c 0,33,34
 120 307 120 307 105 277.5 c 128,-1,35
 90 248 90 248 90 216 c 0,36,37
 90 176 90 176 114 140 c 0,38,39
 153 83 153 83 226 83 c 0,40,41
 267 83 267 83 303 107 c 0,42,43
 327 125 327 125 342 153.5 c 128,-1,44
 357 182 357 182 357 212 c 0,45,46
 357 244 357 244 342 274 c 2,47,-1
 340 278 l 1,26,-1
EndSplineSet
Validated: 513
EndChar

StartChar: seven (12)
Encoding: 55 55 8
Width: 1068
GlyphClass: 1
Flags: W
LayerCount: 2
Fore
SplineSet
510 343 m 1,0,-1
 952 770 l 1,1,-1
 972 730 l 1,2,-1
 537 310 l 1,3,-1
 553 275 l 2,4,5
 557 262 557 262 561 238 c 1,6,-1
 1008 670 l 1,7,-1
 1028 630 l 1,8,-1
 559 176 l 1,9,10
 552 145 552 145 533 116 c 128,-1,11
 514 87 514 87 484 66 c 0,12,13
 436 33 436 33 380 33 c 0,14,15
 335 33 335 33 295.5 54 c 128,-1,16
 256 75 256 75 230 112 c 0,17,18
 197 157 197 157 197 216 c 0,19,20
 197 252 197 252 212 288 c 1,21,-1
 40 550 l 1,22,-1
 68 610 l 1,23,-1
 244 337 l 1,24,25
 257 353 257 353 276 366 c 0,26,27
 324 399 324 399 379 399 c 0,28,29
 455 399 455 399 510 343 c 1,0,-1
497 278 m 1,30,-1
 484 299 l 1,31,-1
 482 302 l 1,32,33
 463 323 463 323 435.5 336 c 128,-1,34
 408 349 408 349 379 349 c 0,35,36
 340 349 340 349 304 325 c 0,37,38
 277 307 277 307 262 277.5 c 128,-1,39
 247 248 247 248 247 216 c 0,40,41
 247 176 247 176 271 140 c 0,42,43
 310 83 310 83 383 83 c 0,44,45
 424 83 424 83 460 107 c 0,46,47
 484 125 484 125 499 153.5 c 128,-1,48
 514 182 514 182 514 212 c 0,49,50
 514 244 514 244 499 274 c 2,51,-1
 497 278 l 1,30,-1
EndSplineSet
Validated: 513
EndChar

StartChar: eight (13)
Encoding: 56 56 9
Width: 1004
GlyphClass: 1
Flags: W
LayerCount: 2
Fore
SplineSet
502 343 m 1,0,-1
 944 770 l 1,1,-1
 964 730 l 1,2,-1
 529 310 l 1,3,4
 540 291 540 291 548 265 c 0,5,6
 551 253 551 253 553 241.5 c 128,-1,7
 555 230 555 230 555 216 c 0,8,9
 555 171 555 171 535 131.5 c 128,-1,10
 515 92 515 92 476 66 c 0,11,12
 428 33 428 33 372 33 c 0,13,14
 327 33 327 33 287.5 54 c 128,-1,15
 248 75 248 75 222 112 c 0,16,17
 189 160 189 160 189 217 c 0,18,19
 189 252 189 252 204 287 c 1,20,-1
 40 526 l 1,21,-1
 76 566 l 1,22,-1
 235 336 l 1,23,24
 250 353 250 353 268 366 c 0,25,26
 316 399 316 399 371 399 c 0,27,28
 447 399 447 399 502 343 c 1,0,-1
489 278 m 1,29,-1
 476 299 l 1,30,-1
 474 302 l 1,31,32
 455 323 455 323 427.5 336 c 128,-1,33
 400 349 400 349 371 349 c 0,34,35
 332 349 332 349 296 325 c 0,36,37
 269 307 269 307 254 277.5 c 128,-1,38
 239 248 239 248 239 216 c 0,39,40
 239 176 239 176 263 140 c 0,41,42
 302 83 302 83 375 83 c 0,43,44
 416 83 416 83 452 107 c 0,45,46
 476 125 476 125 491 153.5 c 128,-1,47
 506 182 506 182 506 212 c 0,48,49
 506 244 506 244 491 274 c 2,50,-1
 489 278 l 1,29,-1
EndSplineSet
Validated: 513
EndChar

StartChar: nine (14)
Encoding: 57 57 10
Width: 1072
GlyphClass: 1
Flags: W
LayerCount: 2
Fore
SplineSet
631 427 m 1,0,-1
 1012 794 l 1,1,-1
 1032 742 l 1,2,-1
 657 393 l 1,3,4
 683 349 683 349 683 300 c 0,5,6
 683 253 683 253 663 214.5 c 128,-1,7
 643 176 643 176 605 150 c 128,-1,8
 567 124 567 124 518 118 c 1,9,-1
 518 -188 l 1,10,-1
 462 -188 l 1,11,-1
 462 121 l 1,12,13
 427 129 427 129 399.5 147 c 128,-1,14
 372 165 372 165 350 196 c 0,15,16
 317 244 317 244 317 300 c 0,17,18
 317 318 317 318 320 334.5 c 128,-1,19
 323 351 323 351 331 369 c 1,20,-1
 40 742 l 1,21,-1
 84 786 l 1,22,-1
 362 419 l 1,23,24
 377 437 377 437 396 450 c 0,25,26
 444 483 444 483 500 483 c 0,27,28
 575 483 575 483 631 427 c 1,0,-1
617 362 m 1,29,-1
 604 383 l 1,30,-1
 602 386 l 1,31,32
 583 407 583 407 555.5 420 c 128,-1,33
 528 433 528 433 499 433 c 0,34,35
 460 433 460 433 424 409 c 0,36,37
 397 391 397 391 382 361.5 c 128,-1,38
 367 332 367 332 367 300 c 0,39,40
 367 260 367 260 391 224 c 0,41,42
 430 167 430 167 503 167 c 0,43,44
 544 167 544 167 580 191 c 0,45,46
 604 209 604 209 619 237.5 c 128,-1,47
 634 266 634 266 634 296 c 0,48,49
 634 328 634 328 619 358 c 2,50,-1
 617 362 l 1,29,-1
EndSplineSet
Validated: 513
EndChar

StartChar: a (30)
Encoding: 97 97 11
Width: 939
GlyphClass: 1
Flags: W
LayerCount: 2
Fore
SplineSet
416 714 m 0,0,1
 436 745 436 745 474 745 c 0,2,3
 495 745 495 745 512 734 c 0,4,5
 543 714 543 714 543 676 c 0,6,7
 543 655 543 655 532 638 c 0,8,9
 512 607 512 607 474 607 c 0,10,11
 453 607 453 607 436 618 c 0,12,13
 405 638 405 638 405 676 c 0,14,15
 405 697 405 697 416 714 c 0,0,1
56 558 m 0,16,17
 58 564 58 564 65 564 c 0,18,19
 82 564 82 564 158 514 c 0,20,21
 246 458 246 458 288 447 c 2,22,-1
 374 431 l 2,23,24
 417 427 417 427 429 426.5 c 128,-1,25
 441 426 441 426 457 426 c 0,26,27
 533 426 533 426 596 442 c 0,28,29
 633 451 633 451 772 546 c 0,30,31
 833 587 833 587 854 587 c 0,32,33
 868 587 868 587 872 574 c 2,34,-1
 889 536 l 2,35,36
 897 517 897 517 899 500 c 0,37,38
 899 486 899 486 891.5 474 c 128,-1,39
 884 462 884 462 860 446 c 0,40,41
 791 404 791 404 750 387 c 128,-1,42
 709 370 709 370 668 362 c 2,43,-1
 542 344 l 2,44,45
 513 341 513 341 485 339 c 128,-1,46
 457 337 457 337 431 337 c 2,47,-1
 419 337 l 1,48,-1
 408 337 l 1,49,-1
 385 337 l 2,50,51
 377 337 377 337 369 337 c 0,52,53
 359 339 359 339 355 339 c 2,54,-1
 324 342 l 1,55,56
 179 342 179 342 122.5 356.5 c 128,-1,57
 66 371 66 371 52 398 c 0,58,59
 40 425 40 425 40 460 c 0,60,61
 40 497 40 497 56 558 c 0,16,17
480 280 m 1,62,63
 517 232 517 232 542 195 c 0,64,65
 605 102 605 102 605 65 c 0,66,67
 605 44 605 44 584 44 c 2,68,-1
 458 45 l 1,69,-1
 344 48 l 2,70,71
 332 48 332 48 331 62 c 0,72,73
 331 95 331 95 397 187.5 c 128,-1,74
 463 280 463 280 480 280 c 1,62,63
EndSplineSet
Validated: 513
EndChar

StartChar: b (141)
Encoding: 98 98 12
Width: 797
GlyphClass: 1
Flags: W
LayerCount: 2
Fore
SplineSet
480 591 m 1,0,-1
 479 604 l 1,1,2
 479 661 479 661 572 709 c 0,3,4
 599 722 599 722 665 746 c 1,5,6
 644 728 644 728 555 671 c 0,7,8
 508 641 508 641 508 600 c 2,9,-1
 510 571 l 2,10,11
 513 553 513 553 535.5 538.5 c 128,-1,12
 558 524 558 524 596 524 c 0,13,14
 622 524 622 524 634 525.5 c 128,-1,15
 646 527 646 527 672 532 c 2,16,-1
 757 550 l 1,17,18
 710 530 710 530 665 516 c 0,19,20
 621 504 621 504 590 504 c 0,21,22
 548 504 548 504 522 523 c 0,23,24
 498 543 498 543 486 589 c 1,25,-1
 487 584 l 1,26,27
 441 580 441 580 405.5 575.5 c 128,-1,28
 370 571 370 571 343 565 c 0,29,30
 195 537 195 537 171 488 c 1,31,-1
 167 470 l 1,32,33
 167 451 167 451 183 434 c 2,34,-1
 204 415 l 2,35,36
 221 399 221 399 247 390 c 0,37,38
 260 387 260 387 273 385 c 128,-1,39
 286 383 286 383 302 383 c 0,40,41
 337 383 337 383 386 393 c 0,42,43
 506 416 506 416 536 416 c 0,44,45
 564 416 564 416 583 412 c 0,46,47
 637 403 637 403 664 385 c 0,48,49
 687 371 687 371 687 352 c 0,50,51
 687 338 687 338 673 320 c 2,52,-1
 643 288 l 2,53,54
 604 252 604 252 533 230 c 0,55,56
 381 185 381 185 343 144 c 0,57,58
 309 110 309 110 293 81 c 128,-1,59
 277 52 277 52 263 8 c 1,60,-1
 256 -47 l 2,61,62
 256 -67 256 -67 253 -83 c 128,-1,63
 250 -99 250 -99 245 -113 c 1,64,-1
 245 -98 l 2,65,66
 245 -92 245 -92 245 -87 c 0,67,68
 243 -80 243 -80 243 -77 c 2,69,-1
 236 -22 l 1,70,-1
 237 0 l 2,71,72
 243 49 243 49 274 95 c 2,73,-1
 312 147 l 2,74,75
 344 191 344 191 393 214 c 0,76,77
 523 274 523 274 548 296 c 0,78,79
 566 313 566 313 568 324 c 0,80,81
 568 339 568 339 514 356 c 1,82,-1
 477 362 l 1,83,-1
 430 364 l 1,84,-1
 330 360 l 1,85,-1
 238 357 l 1,86,-1
 174 360 l 2,87,88
 146 363 146 363 128 373 c 0,89,90
 106 383 106 383 89 395 c 128,-1,91
 72 407 72 407 61 420 c 0,92,93
 40 447 40 447 40 473 c 0,94,95
 40 493 40 493 50 508 c 128,-1,96
 60 523 60 523 80 537 c 0,97,98
 118 560 118 560 241.5 577 c 128,-1,99
 365 594 365 594 440 594 c 0,100,101
 468 594 468 594 480 591 c 1,0,-1
EndSplineSet
Validated: 513
EndChar

StartChar: c (33)
Encoding: 99 99 13
Width: 852
GlyphClass: 1
Flags: W
LayerCount: 2
Fore
SplineSet
44 548 m 1,0,-1
 732 528 l 1,1,-1
 756 652 l 1,2,-1
 812 648 l 1,3,-1
 776 492 l 1,4,-1
 40 512 l 1,5,-1
 44 548 l 1,0,-1
416 664 m 1,6,-1
 472 664 l 1,7,-1
 456 436 l 1,8,-1
 624 68 l 1,9,-1
 96 68 l 1,10,-1
 400 436 l 1,11,-1
 416 664 l 1,6,-1
EndSplineSet
Validated: 517
EndChar

StartChar: d (32)
Encoding: 100 100 14
Width: 984
GlyphClass: 1
Flags: W
LayerCount: 2
Fore
SplineSet
396 401 m 1,0,-1
 337 385 l 2,1,2
 322 382 322 382 307 380 c 128,-1,3
 292 378 292 378 277 378 c 0,4,5
 255 378 255 378 239 382 c 0,6,7
 195 391 195 391 143 418.5 c 128,-1,8
 91 446 91 446 68 475 c 0,9,10
 56 491 56 491 47 522 c 0,11,12
 44 539 44 539 42 554 c 128,-1,13
 40 569 40 569 40 587 c 0,14,15
 40 617 40 617 45 630 c 0,16,17
 55 657 55 657 107 688 c 128,-1,18
 159 719 159 719 201 725 c 2,19,-1
 219 726 l 2,20,21
 255 726 255 726 308 703 c 2,22,-1
 390 666 l 2,23,24
 395 664 395 664 395 658 c 0,25,26
 395 654 395 654 390 642 c 0,27,28
 380 621 380 621 373 615 c 0,29,30
 370 612 370 612 364 612 c 0,31,32
 354 617 354 617 346 621 c 0,33,34
 331 629 331 629 296 649.5 c 128,-1,35
 261 670 261 670 242 670 c 2,36,-1
 228 667 l 1,37,-1
 175 665 l 2,38,39
 132 665 132 665 107 628 c 1,40,-1
 96 604 l 2,41,42
 93 592 93 592 93 575 c 0,43,44
 93 565 93 565 93 559 c 128,-1,45
 93 553 93 553 97.5 536.5 c 128,-1,46
 102 520 102 520 111 507 c 0,47,48
 123 486 123 486 175 459 c 0,49,50
 218 436 218 436 256 425 c 0,51,52
 270 422 270 422 283.5 420 c 128,-1,53
 297 418 297 418 310 418 c 0,54,55
 343 418 343 418 391 430 c 0,56,57
 496 457 496 457 533 457 c 0,58,59
 565 457 565 457 594 456 c 128,-1,60
 623 455 623 455 647 452 c 2,61,-1
 759 437 l 1,62,-1
 850 424 l 2,63,64
 901 415 901 415 937 404 c 0,65,66
 943 401 943 401 944 390 c 0,67,68
 944 378 944 378 936 366 c 0,69,70
 930 354 930 354 920 354 c 2,71,-1
 904 354 l 1,72,-1
 891 354 l 2,73,74
 850 354 850 354 835 357 c 2,75,-1
 780 370 l 2,76,77
 745 381 745 381 708 391 c 128,-1,78
 671 401 671 401 635 408 c 1,79,80
 640 398 640 398 640 368 c 0,81,82
 640 332 640 332 634 287 c 2,83,-1
 619 203 l 2,84,85
 607 140 607 140 569 69 c 128,-1,86
 531 -2 531 -2 505 -2 c 2,87,-1
 401 -3 l 1,88,-1
 251 -6 l 2,89,90
 233 -6 233 -6 232 10 c 0,91,92
 232 31 232 31 269 83 c 2,93,-1
 360 202 l 2,94,95
 365 214 365 214 380 332 c 0,96,97
 386 384 386 384 396 401 c 1,0,-1
484 613 m 0,98,99
 500 638 500 638 530 638 c 0,100,101
 548 638 548 638 563 627 c 0,102,103
 587 610 587 610 587 581 c 0,104,105
 587 566 587 566 578 551 c 0,106,107
 563 528 563 528 533 528 c 0,108,109
 519 528 519 528 502 537 c 0,110,111
 476 552 476 552 476 584 c 0,112,113
 476 600 476 600 484 613 c 0,98,99
616 737 m 0,114,115
 632 762 632 762 662 762 c 0,116,117
 680 762 680 762 695 751 c 0,118,119
 719 734 719 734 719 705 c 0,120,121
 719 690 719 690 710 675 c 0,122,123
 695 652 695 652 665 652 c 0,124,125
 651 652 651 652 634 661 c 0,126,127
 608 676 608 676 608 708 c 0,128,129
 608 724 608 724 616 737 c 0,114,115
816 741 m 0,130,131
 832 766 832 766 862 766 c 0,132,133
 880 766 880 766 895 755 c 0,134,135
 919 738 919 738 919 709 c 0,136,137
 919 694 919 694 910 679 c 0,138,139
 895 656 895 656 865 656 c 0,140,141
 851 656 851 656 834 665 c 0,142,143
 808 680 808 680 808 712 c 0,144,145
 808 728 808 728 816 741 c 0,130,131
EndSplineSet
Validated: 513
EndChar

StartChar: e (120)
Encoding: 101 101 15
Width: 892
GlyphClass: 1
Flags: W
LayerCount: 2
Fore
SplineSet
696 379 m 1,0,-1
 708 376 l 2,1,2
 713 372 713 372 713 368 c 0,3,4
 713 355 713 355 700 348 c 2,5,-1
 675 339 l 1,6,-1
 652 300 l 1,7,-1
 563 148 l 1,8,9
 498 86 498 86 244 44 c 1,10,-1
 244 -4 l 1,11,12
 446 25 446 25 542 75 c 0,13,14
 619 113 619 113 664 192 c 1,15,-1
 740 348 l 1,16,-1
 813 487 l 2,17,18
 852 568 852 568 852 611 c 0,19,20
 852 653 852 653 812 660 c 1,21,-1
 797 661 l 2,22,23
 780 661 780 661 757 655 c 0,24,25
 695 638 695 638 662 634 c 2,26,-1
 582 627 l 1,27,-1
 499 623 l 2,28,29
 441 623 441 623 396.5 631.5 c 128,-1,30
 352 640 352 640 296 664 c 0,31,32
 264 678 264 678 207 724 c 0,33,34
 119 799 119 799 108 788 c 2,35,-1
 69 752 l 2,36,37
 48 731 48 731 40 704 c 1,38,-1
 44 704 l 1,39,40
 92 686 92 686 133 664 c 0,41,42
 220 616 220 616 256 604 c 0,43,44
 319 585 319 585 386 575 c 0,45,46
 416 572 416 572 451 570 c 128,-1,47
 486 568 486 568 528 568 c 0,48,49
 567 568 567 568 612 575 c 2,50,-1
 731 591 l 2,51,52
 745 591 745 591 760 587.5 c 128,-1,53
 775 584 775 584 775 561 c 0,54,55
 775 535 775 535 749 483 c 2,56,-1
 716 420 l 1,57,-1
 696 379 l 1,0,-1
675 339 m 1,58,-1
 649 333 l 1,59,-1
 623 331 l 1,60,-1
 602 331 l 1,61,-1
 580 332 l 2,62,63
 533 332 533 332 495.5 345.5 c 128,-1,64
 458 359 458 359 432 384 c 0,65,66
 429 387 429 387 429 393 c 0,67,68
 429 401 429 401 437.5 410.5 c 128,-1,69
 446 420 446 420 456 420 c 0,70,71
 475 417 475 417 519 392.5 c 128,-1,72
 563 368 563 368 593 368 c 2,73,-1
 607 367 l 2,74,75
 615 367 615 367 623 367 c 0,76,77
 634 370 634 370 638 371 c 2,78,-1
 686 380 l 1,79,-1
 696 379 l 1,80,-1
 675 339 l 1,58,-1
EndSplineSet
Validated: 549
EndChar

StartChar: f (23)
Encoding: 102 102 16
Width: 1310
GlyphClass: 1
Flags: W
LayerCount: 2
Fore
SplineSet
974 552 m 0,0,1
 942 511 942 511 889 511 c 0,2,3
 853 511 853 511 824 534 c 0,4,5
 783 566 783 566 783 619 c 0,6,7
 783 655 783 655 806 684 c 0,8,9
 838 725 838 725 891 725 c 0,10,11
 927 725 927 725 956 702 c 0,12,13
 997 670 997 670 997 617 c 0,14,15
 997 581 997 581 974 552 c 0,0,1
1227 586 m 0,16,17
 1246 569 1246 569 1258 542.5 c 128,-1,18
 1270 516 1270 516 1270 487 c 0,19,20
 1270 448 1270 448 1252 407.5 c 128,-1,21
 1234 367 1234 367 1209 345 c 0,22,23
 1192 331 1192 331 1161 323 c 0,24,25
 1132 317 1132 317 1095 317 c 2,26,-1
 1030 320 l 2,27,28
 1001 323 1001 323 972 332 c 2,29,-1
 825 368 l 1,30,-1
 622 412 l 2,31,32
 585 419 585 419 520 431 c 128,-1,33
 455 443 455 443 389 453 c 2,34,-1
 224 487 l 1,35,36
 199 487 199 487 179.5 478 c 128,-1,37
 160 469 160 469 144 447 c 0,38,39
 123 415 123 415 123 386 c 0,40,41
 123 372 123 372 124.5 365.5 c 128,-1,42
 126 359 126 359 131.5 347 c 128,-1,43
 137 335 137 335 143 323 c 0,44,45
 145 320 145 320 156 302 c 0,46,47
 173 276 173 276 227 251 c 0,48,49
 269 232 269 232 266 204 c 0,50,51
 266 189 266 189 236 189 c 0,52,53
 203 189 203 189 155 210 c 0,54,55
 129 222 129 222 112.5 232.5 c 128,-1,56
 96 243 96 243 82 260 c 0,57,58
 40 310 40 310 40 372 c 0,59,60
 40 404 40 404 50.5 433 c 128,-1,61
 61 462 61 462 83.5 493.5 c 128,-1,62
 106 525 106 525 145.5 539.5 c 128,-1,63
 185 554 185 554 230 554 c 2,64,-1
 277 551 l 2,65,66
 287 551 287 551 300.5 549.5 c 128,-1,67
 314 548 314 548 334 544 c 0,68,69
 473 524 473 524 598 497 c 2,70,-1
 834 443 l 1,71,-1
 1002 400 l 1,72,-1
 1055 385 l 2,73,74
 1070 382 1070 382 1081 380 c 128,-1,75
 1092 378 1092 378 1103 378 c 0,76,77
 1123 378 1123 378 1135 383.5 c 128,-1,78
 1147 389 1147 389 1163 406 c 2,79,-1
 1186 431 l 2,80,81
 1208 459 1208 459 1208 480 c 0,82,83
 1208 495 1208 495 1199 511.5 c 128,-1,84
 1190 528 1190 528 1168 546 c 0,85,86
 1159 554 1159 554 1143 566 c 128,-1,87
 1127 578 1127 578 1104 593 c 2,88,-1
 1066 620 l 1,89,90
 1073 632 1073 632 1084.5 639 c 128,-1,91
 1096 646 1096 646 1110 646 c 0,92,93
 1137 646 1137 646 1175 624 c 0,94,95
 1191 615 1191 615 1201.5 607 c 128,-1,96
 1212 599 1212 599 1227 586 c 0,16,17
944 576 m 0,97,98
 958 593 958 593 958 618 c 0,99,100
 958 652 958 652 932 672 c 0,101,102
 915 686 915 686 890 686 c 0,103,104
 856 686 856 686 836 660 c 0,105,106
 822 643 822 643 822 618 c 0,107,108
 822 584 822 584 848 564 c 0,109,110
 865 550 865 550 890 550 c 0,111,112
 924 550 924 550 944 576 c 0,97,98
EndSplineSet
Validated: 545
EndChar

StartChar: g (103)
Encoding: 103 103 17
Width: 795
GlyphClass: 1
Flags: W
LayerCount: 2
Fore
SplineSet
519 93 m 1,0,-1
 514 136 l 1,1,-1
 513 178 l 1,2,-1
 513 239 l 2,3,4
 513 262 513 262 513 279 c 128,-1,5
 513 296 513 296 517 325.5 c 128,-1,6
 521 355 521 355 541 410 c 0,7,8
 553 443 553 443 627 514 c 0,9,10
 654 538 654 538 645 550 c 0,11,12
 638 557 638 557 621 557 c 0,13,14
 606 557 606 557 516 539 c 0,15,16
 471 530 471 530 449 530 c 0,17,18
 379 530 379 530 298 558 c 2,19,-1
 176 606 l 1,20,21
 176 578 176 578 176 558.5 c 128,-1,22
 176 539 176 539 179 513 c 128,-1,23
 182 487 182 487 189 463 c 128,-1,24
 196 439 196 439 209 410 c 0,25,26
 263 276 263 276 333 207 c 0,27,28
 395 147 395 147 519 93 c 1,0,-1
202 659 m 1,29,30
 237 644 237 644 264 633 c 128,-1,31
 291 622 291 622 316 613 c 0,32,33
 397 586 397 586 461 586 c 0,34,35
 469 586 469 586 502 590.5 c 128,-1,36
 535 595 535 595 585 603 c 0,37,38
 693 620 693 620 726 620 c 0,39,40
 750 620 750 620 753 613 c 2,41,-1
 755 603 l 1,42,43
 755 582 755 582 715 539 c 2,44,-1
 636 455 l 2,45,46
 587 399 587 399 573 354 c 0,47,48
 569 340 569 340 566.5 329 c 128,-1,49
 564 318 564 318 559 290 c 2,50,-1
 555 218 l 2,51,52
 555 173 555 173 561 107 c 2,53,-1
 568 33 l 1,54,-1
 581 18 l 2,55,56
 586 11 586 11 588 3 c 0,57,58
 588 -6 588 -6 570 -6 c 0,59,60
 524 -6 524 -6 438 40 c 0,61,62
 335 95 335 95 249 182 c 0,63,64
 144 290 144 290 93 422 c 0,65,66
 84 445 84 445 69 491 c 0,67,68
 59 521 59 521 52 543 c 0,69,70
 40 587 40 587 40 630 c 0,71,72
 40 680 40 680 65 762 c 0,73,74
 66 769 66 769 95.5 775.5 c 128,-1,75
 125 782 125 782 162 782 c 0,76,77
 207 782 207 782 237 770 c 0,78,79
 244 767 244 767 245 757 c 0,80,81
 245 751 245 751 236 731 c 2,82,-1
 202 659 l 1,29,30
EndSplineSet
Validated: 545
EndChar

StartChar: h (124)
Encoding: 104 104 18
Width: 947
GlyphClass: 1
Flags: W
LayerCount: 2
Fore
SplineSet
761 598 m 1,0,1
 829 519 829 519 870 399 c 0,2,3
 907 286 907 286 907 186 c 0,4,5
 907 89 907 89 872 48 c 0,6,7
 864 39 864 39 852 39 c 0,8,9
 839 39 839 39 825 46 c 2,10,-1
 764 88 l 1,11,-1
 781 84 l 1,12,-1
 816 79 l 2,13,14
 830 79 830 79 837 81.5 c 128,-1,15
 844 84 844 84 849 92 c 0,16,17
 869 130 869 130 869 198 c 0,18,19
 869 287 869 287 836 386 c 0,20,21
 800 494 800 494 733 570 c 1,22,-1
 644 481 l 1,23,24
 697 418 697 418 722 344 c 128,-1,25
 747 270 747 270 747 200 c 0,26,27
 747 92 747 92 696 32 c 0,28,29
 688 23 688 23 676 23 c 0,30,31
 663 23 663 23 649 30 c 2,32,-1
 588 72 l 1,33,-1
 605 68 l 1,34,-1
 640 63 l 2,35,36
 654 63 654 63 661 65.5 c 128,-1,37
 668 68 668 68 673 76 c 0,38,39
 688 104 688 104 697 137.5 c 128,-1,40
 706 171 706 171 706 211 c 0,41,42
 706 270 706 270 685 327 c 0,43,44
 661 389 661 389 612 449 c 1,45,-1
 480 323 l 1,46,-1
 389 235 l 2,47,48
 357 201 357 201 352 190 c 2,49,-1
 349 172 l 1,50,-1
 348 159 l 2,51,52
 348 123 348 123 382 71 c 2,53,-1
 420 16 l 1,54,-1
 40 16 l 1,55,-1
 272 184 l 1,56,-1
 852 748 l 1,57,-1
 884 728 l 1,58,-1
 761 598 l 1,0,1
EndSplineSet
Validated: 513
EndChar

StartChar: i (21)
Encoding: 105 105 19
Width: 682
GlyphClass: 1
Flags: W
LayerCount: 2
Fore
SplineSet
294 452 m 0,0,1
 325 483 325 483 369 483 c 0,2,3
 411 483 411 483 441 453.5 c 128,-1,4
 471 424 471 424 471 379 c 0,5,6
 471 337 471 337 441.5 307 c 128,-1,7
 412 277 412 277 367 277 c 0,8,9
 324 277 324 277 294.5 306.5 c 128,-1,10
 265 336 265 336 265 381 c 0,11,12
 265 423 265 423 294 452 c 0,0,1
518 176 m 1,13,14
 452 137 452 137 379 137 c 0,15,16
 297 137 297 137 225 187 c 0,17,18
 168 226 168 226 137 278 c 0,19,20
 122 304 122 304 114 331.5 c 128,-1,21
 106 359 106 359 106 390 c 2,22,-1
 107 412 l 1,23,-1
 111 438 l 2,24,25
 126 522 126 522 195 573 c 0,26,27
 257 618 257 618 350 632 c 1,28,-1
 369 633 l 1,29,-1
 382 634 l 1,30,31
 442 634 442 634 508 599 c 2,32,-1
 582 556 l 1,33,-1
 642 597 l 1,34,35
 539 660 539 660 490 678 c 128,-1,36
 441 696 441 696 391 696 c 2,37,-1
 348 693 l 2,38,39
 231 681 231 681 150 618.5 c 128,-1,40
 69 556 69 556 45 448 c 1,41,-1
 41 412 l 1,42,-1
 40 389 l 2,43,44
 40 310 40 310 78.5 247 c 128,-1,45
 117 184 117 184 190 132 c 0,46,47
 234 101 234 101 286.5 84.5 c 128,-1,48
 339 68 339 68 385 68 c 0,49,50
 476 68 476 68 559 117 c 1,51,52
 554 130 554 130 535 155 c 2,53,-1
 518 176 l 1,13,14
EndSplineSet
Validated: 521
EndChar

StartChar: j (42)
Encoding: 106 106 20
Width: 1058
GlyphClass: 1
Flags: W
LayerCount: 2
Fore
SplineSet
981 566 m 0,0,1
 993 580 993 580 993 597 c 0,2,3
 993 617 993 617 979 628 c 0,4,5
 967 640 967 640 950 640 c 0,6,7
 929 640 929 640 914 624 c 0,8,9
 903 610 903 610 901 593 c 0,10,11
 901 576 901 576 916 562 c 0,12,13
 931 550 931 550 948 550 c 0,14,15
 968 550 968 550 981 566 c 0,0,1
725 460 m 2,16,-1
 742 498 l 1,17,-1
 753 524 l 2,18,19
 756 535 756 535 730 582 c 0,20,21
 720 600 720 600 725 608 c 0,22,23
 742 623 742 623 765 627.5 c 128,-1,24
 788 632 788 632 804 634 c 128,-1,25
 820 636 820 636 839 636 c 2,26,-1
 885 633 l 1,27,-1
 894 644 l 2,28,29
 915 667 915 667 948 667 c 0,30,31
 976 667 976 667 997 647 c 128,-1,32
 1018 627 1018 627 1018 595 c 0,33,34
 1018 567 1018 567 998 546 c 128,-1,35
 978 525 978 525 946 525 c 0,36,37
 920 525 920 525 900 542.5 c 128,-1,38
 880 560 880 560 876 590 c 1,39,-1
 869 590 l 1,40,-1
 845 596 l 1,41,-1
 829 600 l 2,42,43
 816 600 816 600 799 584 c 1,44,-1
 795 573 l 1,45,-1
 796 557 l 1,46,-1
 801 522 l 1,47,-1
 798 502 l 1,48,-1
 792 484 l 1,49,-1
 780 455 l 1,50,51
 841 455 841 455 918 427 c 1,52,-1
 929 416 l 1,53,-1
 873 419 l 1,54,-1
 839 418 l 1,55,-1
 801 417 l 1,56,-1
 846 383 l 1,57,-1
 867 364 l 1,58,59
 914 364 914 364 959 353 c 0,60,61
 1007 344 1007 344 1005 332 c 0,62,63
 1000 308 1000 308 979 302 c 128,-1,64
 958 296 958 296 865 296 c 0,65,66
 806 296 806 296 741 260 c 1,67,-1
 636 192 l 2,68,69
 573 155 573 155 518 155 c 2,70,-1
 503 155 l 1,71,-1
 493 156 l 2,72,73
 458 156 458 156 345 244 c 0,74,75
 296 281 296 281 252 281 c 0,76,77
 235 281 235 281 223 279 c 128,-1,78
 211 277 211 277 194.5 269.5 c 128,-1,79
 178 262 178 262 153 244 c 0,80,81
 147 240 147 240 159 216 c 0,82,83
 164 205 164 205 161 200 c 2,84,-1
 92 153 l 1,85,-1
 41 128 l 1,86,-1
 40 149 l 2,87,88
 40 215 40 215 98 272 c 0,89,90
 151 322 151 322 233 348 c 0,91,92
 250 353 250 353 270 353 c 0,93,94
 315 353 315 353 394.5 298.5 c 128,-1,95
 474 244 474 244 529 244 c 0,96,97
 582 244 582 244 682 306 c 0,98,99
 735 338 735 338 790 346 c 1,100,101
 781 352 781 352 775 365 c 0,102,103
 760 395 760 395 755 399 c 1,104,-1
 683 368 l 1,105,-1
 625 348 l 1,106,107
 635 383 635 383 675.5 410 c 128,-1,108
 716 437 716 437 725 460 c 2,16,-1
EndSplineSet
Validated: 545
EndChar

StartChar: k (41)
Encoding: 107 107 21
Width: 1029
GlyphClass: 1
Flags: W
LayerCount: 2
Fore
SplineSet
803 457 m 1,0,1
 816 442 816 442 836.5 418.5 c 128,-1,2
 857 395 857 395 889 361 c 2,3,-1
 962 277 l 2,4,5
 989 242 989 242 981 228 c 0,6,7
 975 220 975 220 963 215 c 2,8,-1
 936 212 l 1,9,-1
 903 215 l 1,10,-1
 841 222 l 2,11,12
 822 222 822 222 809.5 218.5 c 128,-1,13
 797 215 797 215 785 204 c 0,14,15
 758 180 758 180 744 109 c 128,-1,16
 730 38 730 38 717 28 c 1,17,-1
 707 25 l 1,18,19
 684 25 684 25 618 103 c 2,20,-1
 494 257 l 1,21,22
 392 198 392 198 275 136 c 0,23,24
 169 81 169 81 69 36 c 0,25,26
 60 33 60 33 50 46 c 0,27,28
 40 63 40 63 40 74 c 0,29,30
 40 83 40 83 45 86 c 0,31,32
 127 127 127 127 287 218 c 2,33,-1
 584 392 l 2,34,35
 732 483 732 483 781 522 c 0,36,37
 822 555 822 555 822 586 c 0,38,39
 822 599 822 599 815 616 c 2,40,-1
 796 657 l 2,41,42
 775 698 775 698 750 717 c 0,43,44
 721 740 721 740 681 740 c 0,45,46
 653 737 653 737 634.5 730.5 c 128,-1,47
 616 724 616 724 593.5 704.5 c 128,-1,48
 571 685 571 685 571 661 c 0,49,50
 571 638 571 638 566 628.5 c 128,-1,51
 561 619 561 619 553 614 c 2,52,-1
 538 610 l 2,53,54
 526 610 526 610 520.5 615 c 128,-1,55
 515 620 515 620 515 629 c 2,56,-1
 530 688 l 1,57,-1
 538 714 l 2,58,59
 550 754 550 754 594 773 c 0,60,61
 628 787 628 787 681 787 c 0,62,63
 737 787 737 787 778.5 760 c 128,-1,64
 820 733 820 733 849 677 c 2,65,-1
 874 623 l 2,66,67
 882 601 882 601 882 583 c 0,68,69
 882 552 882 552 852 504 c 0,70,71
 846 494 846 494 844 491.5 c 128,-1,72
 842 489 842 489 835 483 c 2,73,-1
 803 457 l 1,0,1
555 294 m 1,74,75
 575 270 575 270 631 185 c 0,76,77
 665 133 665 133 681 133 c 1,78,-1
 690 136 l 2,79,80
 699 142 699 142 703 191 c 0,81,82
 703 214 703 214 709.5 231 c 128,-1,83
 716 248 716 248 727.5 257.5 c 128,-1,84
 739 267 739 267 751 272 c 2,85,-1
 778 275 l 1,86,-1
 803 273 l 1,87,-1
 827 271 l 1,88,-1
 847 274 l 2,89,90
 855 277 855 277 863 286 c 0,91,92
 869 295 869 295 850 317 c 1,93,94
 786 373 786 373 744 414 c 1,95,-1
 658 357 l 1,96,-1
 555 294 l 1,74,75
EndSplineSet
Validated: 545
EndChar

StartChar: l (131)
Encoding: 108 108 22
Width: 585
GlyphClass: 1
Flags: W
LayerCount: 2
Fore
SplineSet
277 524 m 2,0,-1
 369 482 l 2,1,2
 408 465 408 465 430 465 c 0,3,4
 455 465 455 465 485.5 479.5 c 128,-1,5
 516 494 516 494 530.5 521 c 128,-1,6
 545 548 545 548 545 583 c 2,7,-1
 545 596 l 2,8,9
 545 601 545 601 545 606 c 0,10,11
 543 612 543 612 543 614 c 0,12,13
 543 627 543 627 533 656 c 0,14,15
 515 720 515 720 450 751 c 0,16,17
 394 776 394 776 313 776 c 0,18,19
 231 776 231 776 173 749 c 128,-1,20
 115 722 115 722 73 656 c 0,21,22
 56 628 56 628 47 582 c 0,23,24
 44 560 44 560 42 533 c 128,-1,25
 40 506 40 506 40 472 c 2,26,-1
 44 329 l 1,27,-1
 50 153 l 1,28,-1
 53 0 l 2,29,30
 53 -15 53 -15 77 -15 c 0,31,32
 90 -15 90 -15 99 -10.5 c 128,-1,33
 108 -6 108 -6 109 4 c 2,34,-1
 108 130 l 1,35,-1
 104 326 l 2,36,37
 104 367 104 367 105 403.5 c 128,-1,38
 106 440 106 440 110.5 486 c 128,-1,39
 115 532 115 532 130 591.5 c 128,-1,40
 145 651 145 651 197.5 685.5 c 128,-1,41
 250 720 250 720 321 720 c 0,42,43
 380 720 380 720 419 700 c 0,44,45
 467 676 467 676 473 628 c 2,46,-1
 474 610 l 1,47,-1
 475 599 l 2,48,49
 475 577 475 577 468.5 562.5 c 128,-1,50
 462 548 462 548 447 537 c 0,51,52
 430 527 430 527 414 527 c 0,53,54
 395 527 395 527 368 542 c 0,55,56
 309 574 309 574 299 576 c 0,57,58
 287 576 287 576 277 566 c 128,-1,59
 267 556 267 556 267 541 c 0,60,61
 267 530 267 530 277 524 c 2,0,-1
EndSplineSet
Validated: 521
EndChar

StartChar: m (133)
Encoding: 109 109 23
Width: 1024
GlyphClass: 1
Flags: W
LayerCount: 2
Fore
SplineSet
251 247 m 0,0,1
 223 273 223 273 183 273 c 0,2,3
 146 273 146 273 118.5 248.5 c 128,-1,4
 91 224 91 224 91 188 c 0,5,6
 91 153 91 153 117.5 128.5 c 128,-1,7
 144 104 144 104 185 104 c 0,8,9
 221 104 221 104 249.5 128.5 c 128,-1,10
 278 153 278 153 278 188 c 0,11,12
 278 221 278 221 251 247 c 0,0,1
549 398 m 0,13,14
 520 424 520 424 471 424 c 0,15,16
 403 424 403 424 359 383 c 0,17,18
 321 350 321 350 321 305 c 0,19,20
 321 266 321 266 353 237 c 0,21,22
 395 198 395 198 458 198 c 0,23,24
 505 198 505 198 538 225 c 0,25,26
 580 261 580 261 580 322 c 0,27,28
 580 367 580 367 549 398 c 0,13,14
523 470 m 1,29,30
 523 520 523 520 540 564.5 c 128,-1,31
 557 609 557 609 594 642 c 0,32,33
 662 704 662 704 759 704 c 1,34,-1
 793 701 l 2,35,36
 807 700 807 700 815 689 c 0,37,38
 820 681 820 681 822 665 c 0,39,40
 822 647 822 647 813 632 c 128,-1,41
 804 617 804 617 790 617 c 2,42,-1
 752 621 l 1,43,44
 693 621 693 621 651 585 c 0,45,46
 630 567 630 567 618.5 541 c 128,-1,47
 607 515 607 515 607 486 c 0,48,49
 607 429 607 429 649.5 390.5 c 128,-1,50
 692 352 692 352 757 352 c 0,51,52
 819 352 819 352 862 389 c 0,53,54
 877 402 877 402 884 424 c 128,-1,55
 891 446 891 446 891 468 c 0,56,57
 893 474 893 474 911 474 c 0,58,59
 933 474 933 474 952.5 467.5 c 128,-1,60
 972 461 972 461 984 446 c 1,61,62
 977 413 977 413 961.5 385.5 c 128,-1,63
 946 358 946 358 918 332 c 0,64,65
 890 308 890 308 853.5 296 c 128,-1,66
 817 284 817 284 777 284 c 0,67,68
 705 284 705 284 636 317 c 1,69,70
 636 282 636 282 624 241 c 0,71,72
 612 205 612 205 585 179 c 0,73,74
 559 156 559 156 524 143.5 c 128,-1,75
 489 131 489 131 452 131 c 0,76,77
 383 131 383 131 329 170 c 1,78,79
 326 148 326 148 315.5 129 c 128,-1,80
 305 110 305 110 286 93 c 0,81,82
 244 56 244 56 185 56 c 256,83,84
 126 56 126 56 83 95 c 128,-1,85
 40 134 40 134 40 188 c 0,86,87
 40 243 40 243 83 281.5 c 128,-1,88
 126 320 126 320 186 320 c 0,89,90
 223 320 223 320 259 302 c 1,91,92
 259 342 259 342 272 374 c 128,-1,93
 285 406 285 406 317 435 c 0,94,95
 373 483 373 483 451 483 c 0,96,97
 468 483 468 483 485.5 480 c 128,-1,98
 503 477 503 477 523 470 c 1,29,30
EndSplineSet
Validated: 513
EndChar

StartChar: n (43)
Encoding: 110 110 24
Width: 982
GlyphClass: 1
Flags: W
LayerCount: 2
Fore
SplineSet
234 363 m 1,0,1
 174 355 174 355 146 316 c 0,2,3
 126 288 126 288 109 216 c 1,4,-1
 106 199 l 1,5,-1
 105 181 l 2,6,7
 105 126 105 126 143 92 c 128,-1,8
 181 58 181 58 246 47 c 0,9,10
 271 44 271 44 281 39 c 0,11,12
 291 36 291 36 292 31 c 0,13,14
 292 26 292 26 274 18 c 2,15,-1
 248 10 l 1,16,-1
 226 9 l 2,17,18
 158 9 158 9 99 70 c 128,-1,19
 40 131 40 131 40 208 c 0,20,21
 40 275 40 275 64.5 325.5 c 128,-1,22
 89 376 89 376 141 400 c 1,23,24
 94 424 94 424 69 475 c 128,-1,25
 44 526 44 526 44 590 c 0,26,27
 44 665 44 665 103 727 c 128,-1,28
 162 789 162 789 231 789 c 0,29,30
 246 789 246 789 253 787 c 0,31,32
 263 787 263 787 278 780 c 0,33,34
 293 775 293 775 293 768 c 1,35,36
 287 761 287 761 283 759 c 2,37,-1
 246 751 l 1,38,39
 179 742 179 742 147 698 c 0,40,41
 121 664 121 664 109 586 c 1,42,-1
 108 568 l 2,43,44
 108 517 108 517 153 479 c 0,45,46
 191 449 191 449 254 436 c 1,47,-1
 265 436 l 1,48,-1
 408 436 l 2,49,50
 448 436 448 436 534 437 c 128,-1,51
 620 438 620 438 666 438 c 0,52,53
 709 438 709 438 801 439 c 128,-1,54
 893 440 893 440 942 440 c 1,55,-1
 942 360 l 1,56,-1
 234 363 l 1,0,1
EndSplineSet
Validated: 513
EndChar

StartChar: o (20)
Encoding: 111 111 25
Width: 1058
GlyphClass: 1
Flags: W
LayerCount: 2
Fore
SplineSet
46 294 m 0,0,1
 40 327 40 327 40 359 c 0,2,3
 40 533 40 533 187.5 662.5 c 128,-1,4
 335 792 335 792 524 792 c 0,5,6
 726 792 726 792 872 656.5 c 128,-1,7
 1018 521 1018 521 1018 322 c 0,8,9
 1018 213 1018 213 981 130 c 0,10,11
 969 103 969 103 944 69 c 1,12,13
 879 12 879 12 783 12 c 0,14,15
 737 12 737 12 697 27 c 128,-1,16
 657 42 657 42 627.5 74.5 c 128,-1,17
 598 107 598 107 582 146 c 0,18,19
 574 167 574 167 570 185 c 128,-1,20
 566 203 566 203 566 225 c 0,21,22
 566 315 566 315 637 385 c 1,23,-1
 652 390 l 1,24,-1
 680 395 l 2,25,26
 692 395 692 395 692 388 c 0,27,28
 692 378 692 378 666 355 c 0,29,30
 610 304 610 304 610 225 c 0,31,32
 610 154 610 154 657 104 c 0,33,34
 677 83 677 83 706 71 c 0,35,36
 720 66 720 66 734.5 63 c 128,-1,37
 749 60 749 60 765 60 c 0,38,39
 804 60 804 60 840 75 c 128,-1,40
 876 90 876 90 899 119 c 0,41,42
 928 154 928 154 938.5 186.5 c 128,-1,43
 949 219 949 219 949 254 c 2,44,-1
 948 282 l 1,45,-1
 948 307 l 1,46,-1
 948 316 l 2,47,48
 948 481 948 481 822 596.5 c 128,-1,49
 696 712 696 712 524 712 c 0,50,51
 357 712 357 712 234.5 603 c 128,-1,52
 112 494 112 494 112 332 c 0,53,54
 112 268 112 268 125.5 232 c 128,-1,55
 139 196 139 196 187 127 c 0,56,57
 208 96 208 96 245.5 78 c 128,-1,58
 283 60 283 60 326 60 c 0,59,60
 398 60 398 60 445 108 c 0,61,62
 466 132 466 132 479 164 c 0,63,64
 492 200 492 200 492 229 c 0,65,66
 492 307 492 307 436 359 c 0,67,68
 411 384 411 384 411 393 c 0,69,70
 411 399 411 399 422 399 c 0,71,72
 434 399 434 399 447 395 c 128,-1,73
 460 391 460 391 465 389 c 0,74,75
 536 320 536 320 536 229 c 0,76,77
 536 147 536 147 475 80 c 0,78,79
 447 49 447 49 404 31 c 0,80,81
 381 23 381 23 361 19 c 128,-1,82
 341 15 341 15 317 15 c 0,83,84
 274 15 274 15 235.5 27.5 c 128,-1,85
 197 40 197 40 166 65 c 0,86,87
 112 112 112 112 83 168 c 0,88,89
 61 213 61 213 46 294 c 0,0,1
EndSplineSet
Validated: 513
EndChar

StartChar: p (40)
Encoding: 112 112 26
Width: 636
GlyphClass: 1
Flags: W
LayerCount: 2
Fore
SplineSet
514 530 m 1,0,1
 523 548 523 548 528 584 c 1,2,3
 528 628 528 628 502 697 c 1,4,-1
 477 778 l 1,5,-1
 480 788 l 1,6,7
 490 797 490 797 520 758 c 0,8,9
 577 681 577 681 588 600 c 1,10,-1
 589 582 l 2,11,12
 589 535 589 535 542 470 c 0,13,14
 492 400 492 400 484 352 c 1,15,-1
 481 308 l 1,16,17
 481 230 481 230 516 128 c 0,18,19
 536 67 536 67 577 -26 c 1,20,-1
 596 -84 l 1,21,22
 574 -75 574 -75 530 -4 c 0,23,24
 481 73 481 73 448 159 c 0,25,26
 408 267 408 267 408 344 c 0,27,28
 408 391 408 391 448 440 c 2,29,-1
 489 489 l 1,30,31
 453 509 453 509 401.5 520.5 c 128,-1,32
 350 532 350 532 297 532 c 0,33,34
 234 532 234 532 186 514 c 128,-1,35
 138 496 138 496 116.5 456 c 128,-1,36
 95 416 95 416 95 370 c 0,37,38
 95 336 95 336 104.5 311.5 c 128,-1,39
 114 287 114 287 133 273 c 0,40,41
 169 245 169 245 196 245 c 0,42,43
 225 245 225 245 261 281 c 0,44,45
 281 301 281 301 291.5 320.5 c 128,-1,46
 302 340 302 340 302 357 c 0,47,48
 302 384 302 384 273 412 c 0,49,50
 265 418 265 418 251 420 c 0,51,52
 235 420 235 420 221 410 c 2,53,-1
 192 385 l 1,54,-1
 192 392 l 1,55,-1
 198 407 l 2,56,57
 207 434 207 434 219.5 445.5 c 128,-1,58
 232 457 232 457 248 459 c 0,59,60
 260 459 260 459 275 450 c 0,61,62
 277 449 277 449 285 443 c 128,-1,63
 293 437 293 437 302 430 c 0,64,65
 345 396 345 396 345 355 c 256,66,67
 345 314 345 314 300 270 c 0,68,69
 273 243 273 243 241 227.5 c 128,-1,70
 209 212 209 212 177 212 c 0,71,72
 137 212 137 212 104 238 c 0,73,74
 81 255 81 255 60.5 304 c 128,-1,75
 40 353 40 353 40 401 c 0,76,77
 40 446 40 446 58 479 c 0,78,79
 85 529 85 529 149 554 c 0,80,81
 179 565 179 565 217 572 c 128,-1,82
 255 579 255 579 295 579 c 0,83,84
 352 579 352 579 409 567 c 128,-1,85
 466 555 466 555 514 530 c 1,0,1
EndSplineSet
Validated: 545
EndChar

StartChar: q (112)
Encoding: 113 113 27
Width: 1018
GlyphClass: 1
Flags: W
LayerCount: 2
Fore
SplineSet
503 655 m 1,0,-1
 422 680 l 2,1,2
 405 684 405 684 383.5 687 c 128,-1,3
 362 690 362 690 343 690 c 0,4,5
 317 690 317 690 284 684 c 0,6,7
 223 672 223 672 136 597 c 0,8,9
 104 570 104 570 77 548 c 0,10,11
 68 541 68 541 56 532 c 1,12,13
 47 538 47 538 43 588 c 2,14,-1
 40 700 l 2,15,16
 40 713 40 713 107.5 728.5 c 128,-1,17
 175 744 175 744 264 756 c 2,18,-1
 286 758 l 1,19,-1
 304 758 l 2,20,21
 368 758 368 758 437 733 c 2,22,-1
 562 684 l 2,23,24
 631 659 631 659 684 659 c 0,25,26
 717 659 717 659 756 668 c 0,27,28
 804 680 804 680 860 710 c 2,29,-1
 964 764 l 2,30,31
 969 766 969 766 973 761 c 0,32,33
 977 759 977 759 978 744 c 0,34,35
 978 733 978 733 972 724 c 0,36,37
 951 697 951 697 892 666 c 128,-1,38
 833 635 833 635 769.5 622 c 128,-1,39
 706 609 706 609 666 609 c 0,40,41
 635 609 635 609 621 612.5 c 128,-1,42
 607 616 607 616 597 619.5 c 128,-1,43
 587 623 587 623 572 630 c 1,44,45
 557 605 557 605 508 541 c 0,46,47
 424 433 424 433 412 376 c 1,48,49
 462 424 462 424 540 463.5 c 128,-1,50
 618 503 618 503 660 503 c 1,51,-1
 677 500 l 1,52,53
 737 477 737 477 752 466 c 0,54,55
 780 447 780 447 780 413 c 0,56,57
 780 399 780 399 775 380 c 0,58,59
 763 332 763 332 733 302 c 128,-1,60
 703 272 703 272 661 272 c 0,61,62
 642 272 642 272 622 280 c 0,63,64
 606 288 606 288 594 299 c 0,65,66
 586 310 586 310 584 321 c 0,67,68
 584 332 584 332 598 332 c 0,69,70
 606 332 606 332 619 327 c 0,71,72
 655 316 655 316 676 316 c 0,73,74
 723 316 723 316 723 370 c 0,75,76
 723 415 723 415 714 426 c 1,77,-1
 659 450 l 1,78,-1
 648 452 l 1,79,80
 613 452 613 452 538 408 c 128,-1,81
 463 364 463 364 407 308 c 1,82,-1
 408 296 l 2,83,84
 420 188 420 188 440 146 c 0,85,86
 470 73 470 73 540 64 c 1,87,-1
 559 63 l 2,88,89
 601 63 601 63 641 103 c 2,90,-1
 724 196 l 2,91,92
 726 198 726 198 736 200 c 0,93,94
 748 200 748 200 763.5 187.5 c 128,-1,95
 779 175 779 175 780 164 c 0,96,97
 778 158 778 158 776 156 c 2,98,-1
 661 47 l 1,99,100
 602 -1 602 -1 547 -1 c 2,101,-1
 519 0 l 2,102,103
 510 2 510 2 507 2.5 c 128,-1,104
 504 3 504 3 492 8 c 0,105,106
 432 28 432 28 399 80 c 0,107,108
 379 112 379 112 365 160 c 0,109,110
 348 220 348 220 348 289 c 0,111,112
 347 296 347 296 346 299 c 2,113,-1
 346 318 l 2,114,115
 346 411 346 411 401 512 c 0,116,117
 432 569 432 569 503 655 c 1,0,-1
EndSplineSet
Validated: 513
EndChar

StartChar: r (22)
Encoding: 114 114 28
Width: 1061
GlyphClass: 1
Flags: W
LayerCount: 2
Fore
SplineSet
961 320 m 0,0,1
 991 355 991 355 991 400 c 0,2,3
 991 453 991 453 951 490 c 0,4,5
 916 520 916 520 871 520 c 0,6,7
 818 520 818 520 781 480 c 0,8,9
 751 445 751 445 751 400 c 0,10,11
 751 347 751 347 791 310 c 0,12,13
 826 280 826 280 871 280 c 0,14,15
 924 280 924 280 961 320 c 0,0,1
722 368 m 1,16,-1
 237 363 l 1,17,18
 166 354 166 354 136 317 c 0,19,20
 100 270 100 270 100 144 c 1,21,22
 71 160 71 160 54 186 c 0,23,24
 40 211 40 211 40 239 c 0,25,26
 40 287 40 287 74 337 c 0,27,28
 104 382 104 382 144 400 c 1,29,30
 97 424 97 424 72 475 c 128,-1,31
 47 526 47 526 47 590 c 0,32,33
 47 665 47 665 106 727 c 128,-1,34
 165 789 165 789 234 789 c 0,35,36
 249 789 249 789 256 787 c 0,37,38
 266 787 266 787 281 780 c 0,39,40
 296 775 296 775 296 768 c 1,41,42
 290 761 290 761 286 759 c 2,43,-1
 249 751 l 1,44,45
 182 742 182 742 150 698 c 0,46,47
 124 664 124 664 112 586 c 1,48,-1
 111 568 l 2,49,50
 111 517 111 517 156 479 c 0,51,52
 194 449 194 449 257 436 c 0,53,54
 268 434 268 434 336.5 432 c 128,-1,55
 405 430 405 430 437 430 c 2,56,-1
 718 427 l 1,57,-1
 721 445 l 1,58,-1
 725 456 l 2,59,60
 740 502 740 502 780 530 c 128,-1,61
 820 558 820 558 870 558 c 2,62,-1
 895 557 l 2,63,64
 905 557 905 557 919 550 c 0,65,66
 965 535 965 535 993 494.5 c 128,-1,67
 1021 454 1021 454 1021 405 c 2,68,-1
 1020 379 l 2,69,70
 1020 371 1020 371 1013 356 c 0,71,72
 998 309 998 309 958 281.5 c 128,-1,73
 918 254 918 254 868 254 c 2,74,-1
 842 255 l 2,75,76
 834 255 834 255 819 262 c 0,77,78
 781 274 781 274 757 301 c 128,-1,79
 733 328 733 328 722 368 c 1,16,-1
EndSplineSet
Validated: 513
EndChar

StartChar: s (31)
Encoding: 115 115 29
Width: 1221
GlyphClass: 1
Flags: W
LayerCount: 2
Fore
SplineSet
685 550 m 1,0,-1
 475 548 l 1,1,2
 515 521 515 521 542.5 469 c 128,-1,3
 570 417 570 417 582 348 c 1,4,5
 601 489 601 489 685 550 c 1,0,-1
401 682 m 2,6,7
 403 673 403 673 407 670 c 0,8,9
 419 667 419 667 426 660 c 0,10,11
 432 656 432 656 433 650 c 0,12,13
 433 631 433 631 401 631 c 0,14,15
 391 631 391 631 383 636 c 0,16,17
 369 645 369 645 368 650 c 2,18,-1
 362 668 l 1,19,-1
 358 693 l 1,20,21
 295 685 295 685 265 670 c 0,22,23
 241 659 241 659 195 620 c 0,24,25
 165 596 165 596 133 561 c 1,26,-1
 107 521 l 1,27,-1
 115 524 l 1,28,-1
 165 548 l 2,29,30
 180 557 180 557 211 588 c 1,31,-1
 343 590 l 2,32,33
 409 590 409 590 521 589 c 128,-1,34
 633 588 633 588 679 588 c 2,35,-1
 1019 584 l 2,36,37
 1065 584 1065 584 1111 556 c 0,38,39
 1143 536 1143 536 1162 502.5 c 128,-1,40
 1181 469 1181 469 1181 430 c 0,41,42
 1181 387 1181 387 1160 353.5 c 128,-1,43
 1139 320 1139 320 1105.5 301 c 128,-1,44
 1072 282 1072 282 1033 282 c 0,45,46
 990 282 990 282 955 304 c 2,47,-1
 929 322 l 2,48,49
 917 331 917 331 907 344 c 0,50,51
 904 349 904 349 902 360 c 0,52,53
 902 370 902 370 908 377 c 128,-1,54
 914 384 914 384 925 386 c 0,55,56
 927 385 927 385 929.5 384 c 128,-1,57
 932 383 932 383 935 380 c 0,58,59
 941 370 941 370 959 359 c 2,60,-1
 986 344 l 2,61,62
 1018 325 1018 325 1046 325 c 0,63,64
 1094 325 1094 325 1127 379 c 0,65,66
 1145 409 1145 409 1145 435 c 0,67,68
 1145 480 1145 480 1088 516 c 0,69,70
 1070 528 1070 528 1049 534 c 128,-1,71
 1028 540 1028 540 1011 540 c 256,72,73
 994 540 994 540 964 541 c 128,-1,74
 934 542 934 542 921 542 c 2,75,-1
 776 549 l 1,76,77
 715 516 715 516 677 445.5 c 128,-1,78
 639 375 639 375 639 300 c 0,79,80
 639 212 639 212 676.5 143.5 c 128,-1,81
 714 75 714 75 785 40 c 0,82,83
 800 32 800 32 800 19 c 0,84,85
 800 -3 800 -3 772 -3 c 0,86,87
 759 -3 759 -3 745 4 c 0,88,89
 682 40 682 40 639.5 96 c 128,-1,90
 597 152 597 152 582 221 c 1,91,92
 570 153 570 153 526.5 94.5 c 128,-1,93
 483 36 483 36 419 0 c 0,94,95
 406 -5 406 -5 391 -7 c 0,96,97
 364 -7 364 -7 364 15 c 0,98,99
 364 27 364 27 379 36 c 0,100,101
 447 69 447 69 486 140 c 128,-1,102
 525 211 525 211 525 296 c 0,103,104
 525 371 525 371 486.5 442.5 c 128,-1,105
 448 514 448 514 384 547 c 1,106,107
 281 547 281 547 203 540 c 0,108,109
 170 537 170 537 124 487 c 2,110,-1
 51 404 l 1,111,112
 49 410 49 410 48 415.5 c 128,-1,113
 47 421 47 421 43 428 c 2,114,-1
 40 486 l 2,115,116
 40 515 40 515 43 524 c 0,117,118
 46 553 46 553 56 570 c 0,119,120
 71 599 71 599 99 624 c 0,121,122
 134 656 134 656 162 676.5 c 128,-1,123
 190 697 190 697 214 710 c 0,124,125
 247 727 247 727 286.5 737 c 128,-1,126
 326 747 326 747 368 747 c 1,127,-1
 375 767 l 2,128,129
 381 785 381 785 403 792 c 2,130,-1
 410 793 l 1,131,-1
 414 794 l 1,132,-1
 422 790 l 1,133,-1
 435 784 l 1,134,135
 431 783 431 783 435 773 c 0,136,137
 441 765 441 765 428.5 761.5 c 128,-1,138
 416 758 416 758 406.5 745.5 c 128,-1,139
 397 733 397 733 397 711 c 2,140,-1
 398 696 l 1,141,-1
 401 682 l 2,6,7
EndSplineSet
Validated: 513
EndChar

StartChar: t (114)
Encoding: 116 116 30
Width: 957
GlyphClass: 1
Flags: W
LayerCount: 2
Fore
SplineSet
616 259 m 1,0,1
 619 285 619 285 625 304 c 1,2,-1
 625 320 l 1,3,-1
 625 341 l 2,4,5
 625 358 625 358 623 363 c 0,6,7
 609 410 609 410 570.5 438.5 c 128,-1,8
 532 467 532 467 486 467 c 1,9,-1
 468 465 l 2,10,11
 458 465 458 465 445 460 c 0,12,13
 402 446 402 446 376.5 407 c 128,-1,14
 351 368 351 368 351 321 c 0,15,16
 351 301 351 301 357 278 c 0,17,18
 372 231 372 231 408.5 202.5 c 128,-1,19
 445 174 445 174 491 174 c 0,20,21
 503 174 503 174 510 176 c 2,22,-1
 531 181 l 1,23,24
 592 200 592 200 616 259 c 1,0,1
359 788 m 0,25,26
 375 792 375 792 390.5 794 c 128,-1,27
 406 796 406 796 426 796 c 0,28,29
 467 796 467 796 495 785 c 0,30,31
 524 776 524 776 540.5 748 c 128,-1,32
 557 720 557 720 557 695 c 0,33,34
 557 654 557 654 513 628 c 1,35,-1
 506 626 l 1,36,-1
 497 626 l 2,37,38
 480 626 480 626 473 628.5 c 128,-1,39
 466 631 466 631 466 639 c 0,40,41
 466 644 466 644 476 653 c 2,42,-1
 498 670 l 2,43,44
 510 679 510 679 510 690 c 0,45,46
 510 698 510 698 492.5 721.5 c 128,-1,47
 475 745 475 745 448 745 c 2,48,-1
 423 743 l 1,49,-1
 389 738 l 1,50,-1
 341 738 l 2,51,52
 319 738 319 738 309 735.5 c 128,-1,53
 299 733 299 733 291 730 c 128,-1,54
 283 727 283 727 277 724 c 0,55,56
 197 687 197 687 171 610 c 0,57,58
 153 556 153 556 153 422 c 2,59,-1
 153 330 l 2,60,61
 153 244 153 244 234 193 c 0,62,63
 305 149 305 149 405 149 c 1,64,65
 371 167 371 167 347.5 195.5 c 128,-1,66
 324 224 324 224 313 259 c 0,67,68
 304 294 304 294 304 320 c 0,69,70
 304 384 304 384 338.5 434.5 c 128,-1,71
 373 485 373 485 433 504 c 0,72,73
 460 513 460 513 487 513 c 0,74,75
 545 513 545 513 593.5 476.5 c 128,-1,76
 642 440 642 440 660 377 c 1,77,-1
 666 349 l 1,78,-1
 668 318 l 1,79,-1
 667 296 l 1,80,-1
 664 168 l 1,81,-1
 662 74 l 2,82,83
 662 45 662 45 663 19.5 c 128,-1,84
 664 -6 664 -6 668.5 -37.5 c 128,-1,85
 673 -69 673 -69 687.5 -97.5 c 128,-1,86
 702 -126 702 -126 730.5 -142.5 c 128,-1,87
 759 -159 759 -159 790 -159 c 0,88,89
 847 -159 847 -159 892 -117 c 0,90,91
 941 -70 941 -70 941 -3 c 0,92,93
 941 27 941 27 931 53 c 0,94,95
 923 79 923 79 898 103 c 0,96,97
 878 125 878 125 876 133 c 1,98,-1
 889 134 l 1,99,100
 906 130 906 130 912.5 129.5 c 128,-1,101
 919 129 919 129 925 128 c 0,102,103
 951 101 951 101 964 69.5 c 128,-1,104
 977 38 977 38 977 -3 c 0,105,106
 977 -87 977 -87 917 -144 c 0,107,108
 890 -170 890 -170 852 -183 c 128,-1,109
 814 -196 814 -196 778 -196 c 0,110,111
 731 -196 731 -196 692.5 -177.5 c 128,-1,112
 654 -159 654 -159 633 -124 c 1,113,-1
 622 -24 l 2,114,115
 611 99 611 99 611 180 c 1,116,117
 598 167 598 167 577 154 c 0,118,119
 567 144 567 144 548 136 c 0,120,121
 517 122 517 122 472.5 112 c 128,-1,122
 428 102 428 102 386 102 c 0,123,124
 278 102 278 102 205 151 c 0,125,126
 122 206 122 206 110 309 c 2,127,-1
 102 389 l 1,128,-1
 100 461 l 2,129,130
 100 567 100 567 128 635 c 0,131,132
 161 718 161 718 242 757 c 0,133,134
 294 780 294 780 359 788 c 0,25,26
EndSplineSet
Validated: 513
EndChar

StartChar: u (130)
Encoding: 117 117 31
Width: 1277
GlyphClass: 1
Flags: W
LayerCount: 2
Fore
SplineSet
1175 682 m 0,0,1
 1207 665 1207 665 1222 631 c 0,2,3
 1237 601 1237 601 1237 561 c 0,4,5
 1237 546 1237 546 1235.5 531 c 128,-1,6
 1234 516 1234 516 1226 494 c 0,7,8
 1217 464 1217 464 1199 441 c 0,9,10
 1167 403 1167 403 1057 391 c 1,11,-1
 968 387 l 2,12,13
 948 387 948 387 889.5 389 c 128,-1,14
 831 391 831 391 811 391 c 2,15,-1
 591 400 l 1,16,-1
 373 405 l 1,17,-1
 356 405 l 2,18,19
 349 405 349 405 343 405 c 0,20,21
 333 407 333 407 329 407 c 2,22,-1
 247 414 l 2,23,24
 205 414 205 414 176 401.5 c 128,-1,25
 147 389 147 389 134 357 c 128,-1,26
 121 325 121 325 121 307 c 0,27,28
 121 280 121 280 141 251 c 2,29,-1
 169 217 l 2,30,31
 190 193 190 193 249 178 c 0,32,33
 295 166 295 166 295 139 c 0,34,35
 295 130 295 130 281 123.5 c 128,-1,36
 267 117 267 117 245 117 c 256,37,38
 223 117 223 117 207 119 c 128,-1,39
 191 121 191 121 168 128 c 0,40,41
 130 140 130 140 104 162 c 0,42,43
 40 214 40 214 40 296 c 0,44,45
 40 343 40 343 64 390 c 0,46,47
 94 450 94 450 168 471 c 0,48,49
 218 485 218 485 303 485 c 0,50,51
 343 485 343 485 432 482 c 128,-1,52
 521 479 521 479 571 479 c 2,53,-1
 813 467 l 1,54,-1
 986 460 l 1,55,-1
 1029 455 l 1,56,-1
 1064 453 l 2,57,58
 1093 453 1093 453 1110.5 460.5 c 128,-1,59
 1128 468 1128 468 1142 490 c 2,60,-1
 1159 518 l 2,61,62
 1175 547 1175 547 1175 565 c 0,63,64
 1175 581 1175 581 1163 598.5 c 128,-1,65
 1151 616 1151 616 1122 634 c 2,66,-1
 1080 656 l 1,67,-1
 1011 687 l 1,68,69
 1023 721 1023 721 1063 721 c 0,70,71
 1076 721 1076 721 1091 718 c 128,-1,72
 1106 715 1106 715 1124 707 c 0,73,74
 1138 702 1138 702 1148.5 697 c 128,-1,75
 1159 692 1159 692 1175 682 c 0,0,1
EndSplineSet
Validated: 513
EndChar

StartChar: v (44)
Encoding: 118 118 32
Width: 1000
GlyphClass: 1
Flags: W
LayerCount: 2
Fore
SplineSet
287 356 m 1,0,1
 414 379 414 379 568 398 c 0,2,3
 668 409 668 409 768 421 c 1,4,-1
 785 421 l 2,5,6
 831 421 831 421 845 426 c 0,7,8
 879 435 879 435 892 467 c 2,9,-1
 904 497 l 1,10,-1
 909 522 l 2,11,12
 909 538 909 538 898.5 551 c 128,-1,13
 888 564 888 564 861 575 c 2,14,-1
 810 591 l 1,15,-1
 760 604 l 1,16,17
 763 624 763 624 777 632.5 c 128,-1,18
 791 641 791 641 814 641 c 0,19,20
 830 641 830 641 853 635 c 0,21,22
 863 633 863 633 871 631 c 128,-1,23
 879 629 879 629 891 624 c 0,24,25
 926 612 926 612 943 577.5 c 128,-1,26
 960 543 960 543 960 505 c 0,27,28
 960 466 960 466 945 434 c 0,29,30
 929 404 929 404 863 388 c 0,31,32
 849 385 849 385 814.5 380 c 128,-1,33
 780 375 780 375 728.5 369.5 c 128,-1,34
 677 364 677 364 560 347 c 0,35,36
 413 326 413 326 281 299 c 1,37,-1
 179 282 l 1,38,39
 120 267 120 267 108 219 c 2,40,-1
 105 206 l 1,41,-1
 104 191 l 2,42,43
 104 152 104 152 157 112 c 0,44,45
 176 98 176 98 220 93 c 1,46,47
 261 93 261 93 268 69 c 0,48,49
 270 57 270 57 251 48 c 0,50,51
 230 41 230 41 199 41 c 0,52,53
 172 41 172 41 152 44.5 c 128,-1,54
 132 48 132 48 112 60 c 0,55,56
 76 80 76 80 58 112.5 c 128,-1,57
 40 145 40 145 40 185 c 0,58,59
 40 207 40 207 49 237.5 c 128,-1,60
 58 268 58 268 85.5 291.5 c 128,-1,61
 113 315 113 315 152 328 c 2,62,-1
 185 336 l 2,63,64
 200 338 200 338 207 339 c 128,-1,65
 214 340 214 340 226 344 c 2,66,-1
 250 349 l 1,67,68
 277 379 277 379 289 422 c 1,69,-1
 293 451 l 1,70,71
 293 494 293 494 268.5 526.5 c 128,-1,72
 244 559 244 559 201 571 c 0,73,74
 191 571 191 571 186 573 c 2,75,-1
 169 575 l 1,76,77
 121 575 121 575 85 543 c 0,78,79
 80 538 80 538 69 536 c 0,80,81
 56 536 56 536 56 547 c 0,82,83
 56 553 56 553 64 560 c 0,84,85
 106 599 106 599 167 599 c 0,86,87
 185 599 185 599 205 594 c 0,88,89
 255 582 255 582 286.5 540 c 128,-1,90
 318 498 318 498 318 447 c 0,91,92
 318 426 318 426 313 405.5 c 128,-1,93
 308 385 308 385 287 356 c 1,0,1
EndSplineSet
Validated: 513
EndChar

StartChar: w (102)
Encoding: 119 119 33
Width: 1000
GlyphClass: 1
Flags: W
LayerCount: 2
Fore
SplineSet
541 288 m 1,0,-1
 543 246 l 2,1,2
 543 209 543 209 546 203 c 0,3,4
 574 149 574 149 630.5 112 c 128,-1,5
 687 75 687 75 748 75 c 0,6,7
 786 75 786 75 822 93 c 0,8,9
 870 118 870 118 898.5 166 c 128,-1,10
 927 214 927 214 927 268 c 0,11,12
 927 317 927 317 903.5 360.5 c 128,-1,13
 880 404 880 404 838 432 c 128,-1,14
 796 460 796 460 749 460 c 0,15,16
 728 463 728 463 726 475 c 0,17,18
 726 490 726 490 754 490 c 0,19,20
 768 490 768 490 773 488 c 0,21,22
 824 478 824 478 866 449 c 0,23,24
 907 423 907 423 933.5 373.5 c 128,-1,25
 960 324 960 324 960 268 c 0,26,27
 960 206 960 206 928 151 c 128,-1,28
 896 96 896 96 837 64 c 0,29,30
 786 37 786 37 729 37 c 0,31,32
 674 37 674 37 623.5 62.5 c 128,-1,33
 573 88 573 88 541 133 c 1,34,-1
 541 -40 l 1,35,-1
 457 -40 l 1,36,-1
 457 126 l 1,37,38
 424 81 424 81 375.5 57 c 128,-1,39
 327 33 327 33 271 33 c 0,40,41
 214 33 214 33 163 60 c 0,42,43
 106 90 106 90 73 145 c 128,-1,44
 40 200 40 200 40 265 c 0,45,46
 40 319 40 319 67 372 c 0,47,48
 91 415 91 415 133 444.5 c 128,-1,49
 175 474 175 474 227 484 c 1,50,-1
 246 486 l 2,51,52
 272 486 272 486 274 471 c 0,53,54
 274 456 274 456 251 456 c 0,55,56
 206 456 206 456 164 430 c 128,-1,57
 122 404 122 404 97.5 359 c 128,-1,58
 73 314 73 314 73 264 c 0,59,60
 73 210 73 210 100 163 c 128,-1,61
 127 116 127 116 178 89 c 0,62,63
 212 72 212 72 251 72 c 0,64,65
 311 72 311 72 367 108 c 128,-1,66
 423 144 423 144 454 203 c 1,67,-1
 455 213 l 1,68,-1
 456 230 l 1,69,-1
 456 267 l 1,70,-1
 457 284 l 1,71,-1
 457 500 l 1,72,-1
 209 748 l 1,73,-1
 789 748 l 1,74,-1
 541 500 l 1,75,-1
 541 288 l 1,0,-1
EndSplineSet
Validated: 513
EndChar

StartChar: x (123)
Encoding: 120 120 34
Width: 1037
GlyphClass: 1
Flags: W
LayerCount: 2
Fore
SplineSet
772 84 m 1,0,-1
 787 83 l 2,1,2
 840 83 840 83 881 108 c 0,3,4
 959 156 959 156 959 240 c 0,5,6
 959 280 959 280 937.5 315.5 c 128,-1,7
 916 351 916 351 879 371.5 c 128,-1,8
 842 392 842 392 804 392 c 2,9,-1
 568 383 l 1,10,-1
 347 380 l 1,11,-1
 201 381 l 2,12,13
 135 381 135 381 60 392 c 0,14,15
 47 393 47 393 43 441 c 2,16,-1
 40 508 l 2,17,18
 40 520 40 520 48 520 c 0,19,20
 57 520 57 520 108 484 c 128,-1,21
 159 448 159 448 188 448 c 0,22,23
 224 448 224 448 304 441 c 128,-1,24
 384 434 384 434 429 434 c 2,25,-1
 690 431 l 1,26,-1
 711 431 l 1,27,-1
 728 431 l 1,28,-1
 742 431 l 1,29,-1
 774 431 l 1,30,-1
 800 432 l 2,31,32
 851 432 851 432 895.5 407.5 c 128,-1,33
 940 383 940 383 968.5 335 c 128,-1,34
 997 287 997 287 997 234 c 0,35,36
 997 186 997 186 972 141 c 128,-1,37
 947 96 947 96 904 68 c 0,38,39
 880 54 880 54 852 43 c 0,40,41
 825 35 825 35 798 35 c 2,42,-1
 784 36 l 1,43,-1
 755 37 l 1,44,-1
 718 37 l 1,45,-1
 505 35 l 1,46,-1
 324 33 l 1,47,-1
 296 33 l 2,48,49
 193 33 193 33 163 39 c 0,50,51
 121 48 121 48 95 80 c 0,52,53
 71 113 71 113 71 159 c 1,54,-1
 74 191 l 2,55,56
 81 236 81 236 114.5 268.5 c 128,-1,57
 148 301 148 301 189 301 c 0,58,59
 205 301 205 301 218 296 c 0,60,61
 248 285 248 285 261 274 c 128,-1,62
 274 263 274 263 276 251 c 0,63,64
 276 236 276 236 253 236 c 0,65,66
 231 236 231 236 208 252 c 0,67,68
 194 261 194 261 182 261 c 0,69,70
 162 261 162 261 146.5 239.5 c 128,-1,71
 131 218 131 218 122 185 c 1,72,-1
 120 170 l 1,73,-1
 120 158 l 2,74,75
 120 125 120 125 134 104 c 128,-1,76
 148 83 148 83 179 74 c 0,77,78
 205 70 205 70 241.5 67 c 128,-1,79
 278 64 278 64 316 64 c 2,80,-1
 372 64 l 1,81,-1
 408 68 l 1,82,83
 387 75 387 75 378 82 c 0,84,85
 348 108 348 108 348 165 c 2,86,-1
 348 179 l 1,87,-1
 350 195 l 2,88,89
 354 239 354 239 389 274 c 128,-1,90
 424 309 424 309 465 309 c 0,91,92
 484 309 484 309 494 304 c 0,93,94
 523 293 523 293 537.5 282 c 128,-1,95
 552 271 552 271 552 261 c 0,96,97
 552 247 552 247 530 247 c 256,98,99
 508 247 508 247 484 264 c 0,100,101
 474 270 474 270 458 272 c 0,102,103
 436 272 436 272 417.5 249.5 c 128,-1,104
 399 227 399 227 390 193 c 1,105,-1
 389 177 l 2,106,107
 389 142 389 142 410 114.5 c 128,-1,108
 431 87 431 87 467 78 c 0,109,110
 485 75 485 75 517 75 c 0,111,112
 531 75 531 75 559 76 c 128,-1,113
 587 77 587 77 602 77 c 2,114,-1
 772 84 l 1,0,-1
EndSplineSet
Validated: 513
EndChar

StartChar: y (34)
Encoding: 121 121 35
Width: 776
GlyphClass: 1
Flags: W
LayerCount: 2
Fore
SplineSet
666 518 m 0,0,1
 675 512 675 512 685.5 501.5 c 128,-1,2
 696 491 696 491 707 479 c 2,3,-1
 736 432 l 1,4,-1
 731 396 l 2,5,6
 730 390 730 390 728 387.5 c 128,-1,7
 726 385 726 385 725 384 c 0,8,9
 720 384 720 384 708 408 c 0,10,11
 693 441 693 441 684 453 c 0,12,13
 669 475 669 475 647 490 c 0,14,15
 597 523 597 523 538 523 c 0,16,17
 489 523 489 523 447 500 c 0,18,19
 407 480 407 480 376 437 c 2,20,-1
 372 431 l 1,21,-1
 372 359 l 1,22,23
 391 385 391 385 424.5 400 c 128,-1,24
 458 415 458 415 498 415 c 0,25,26
 563 415 563 415 616 380 c 0,27,28
 635 367 635 367 649 348 c 0,29,30
 660 335 660 335 672 310 c 1,31,-1
 669 289 l 2,32,33
 669 282 669 282 667 278 c 128,-1,34
 665 274 665 274 663 271 c 1,35,36
 658 275 658 275 656 279 c 2,37,-1
 650 291 l 2,38,39
 646 299 646 299 642 307 c 0,40,41
 634 321 634 321 630 327 c 0,42,43
 617 346 617 346 598.5 358.5 c 128,-1,44
 580 371 580 371 563 375.5 c 128,-1,45
 546 380 546 380 536 382 c 128,-1,46
 526 384 526 384 512 384 c 0,47,48
 472 384 472 384 437.5 365.5 c 128,-1,49
 403 347 403 347 379 313 c 2,50,-1
 372 303 l 1,51,-1
 372 24 l 1,52,-1
 288 24 l 1,53,-1
 288 500 l 1,54,-1
 40 748 l 1,55,-1
 620 748 l 1,56,-1
 372 500 l 1,57,58
 396 530 396 530 436 545 c 0,59,60
 457 553 457 553 476.5 557 c 128,-1,61
 496 561 496 561 521 561 c 0,62,63
 601 561 601 561 666 518 c 0,0,1
EndSplineSet
Validated: 517
EndChar

StartChar: A (24)
Encoding: 65 65 36
Width: 1245
GlyphClass: 1
Flags: W
LayerCount: 2
Fore
SplineSet
284 52 m 0,0,1
 314 87 314 87 314 132 c 0,2,3
 314 185 314 185 274 222 c 0,4,5
 239 252 239 252 194 252 c 0,6,7
 141 252 141 252 104 212 c 0,8,9
 74 177 74 177 74 132 c 0,10,11
 74 79 74 79 114 42 c 0,12,13
 149 12 149 12 194 12 c 0,14,15
 247 12 247 12 284 52 c 0,0,1
344 128 m 1,16,-1
 518 126 l 1,17,-1
 679 124 l 2,18,19
 714 124 714 124 767 125 c 128,-1,20
 820 126 820 126 837 126 c 0,21,22
 863 126 863 126 888.5 128.5 c 128,-1,23
 914 131 914 131 960 136 c 0,24,25
 1038 145 1038 145 1072 173 c 128,-1,26
 1106 201 1106 201 1112 260 c 2,27,-1
 1113 276 l 2,28,29
 1113 327 1113 327 1077 359.5 c 128,-1,30
 1041 392 1041 392 968 412 c 0,31,32
 875 436 875 436 836 453 c 0,33,34
 760 484 760 484 714 528 c 0,35,36
 660 582 660 582 660 656 c 0,37,38
 660 734 660 734 736 762 c 0,39,40
 784 780 784 780 880 780 c 0,41,42
 977 780 977 780 1051 754 c 2,43,-1
 1168 708 l 2,44,45
 1174 706 1174 706 1174 697 c 0,46,47
 1174 687 1174 687 1166 672 c 2,48,-1
 1157 657 l 1,49,50
 1138 660 1138 660 1115 665 c 128,-1,51
 1092 670 1092 670 1040.5 683.5 c 128,-1,52
 989 697 989 697 928 697 c 2,53,-1
 895 697 l 2,54,55
 836 697 836 697 815 687 c 0,56,57
 783 672 783 672 783 625 c 0,58,59
 783 539 783 539 928 481 c 0,60,61
 978 461 978 461 1058 442 c 128,-1,62
 1138 423 1138 423 1173 382 c 0,63,64
 1205 345 1205 345 1205 288 c 2,65,-1
 1205 275 l 1,66,-1
 1203 260 l 2,67,68
 1194 191 1194 191 1133 148 c 0,69,70
 1082 113 1082 113 1006 101 c 0,71,72
 953 94 953 94 910 91 c 128,-1,73
 867 88 867 88 808 88 c 2,74,-1
 566 83 l 1,75,-1
 334 83 l 1,76,77
 318 41 318 41 277 12 c 0,78,79
 237 -14 237 -14 191 -14 c 0,80,81
 175 -14 175 -14 167 -13 c 128,-1,82
 159 -12 159 -12 142 -6 c 0,83,84
 95 9 95 9 67.5 48.5 c 128,-1,85
 40 88 40 88 40 139 c 2,86,-1
 41 164 l 2,87,88
 41 174 41 174 48 188 c 0,89,90
 63 234 63 234 103 262 c 128,-1,91
 143 290 143 290 193 290 c 2,92,-1
 218 289 l 2,93,94
 228 289 228 289 242 282 c 0,95,96
 291 267 291 267 317.5 224 c 128,-1,97
 344 181 344 181 344 128 c 1,16,-1
EndSplineSet
Validated: 513
EndChar

StartChar: F (104)
Encoding: 70 70 37
Width: 783
GlyphClass: 1
Flags: W
LayerCount: 2
Fore
SplineSet
134 780 m 0,0,1
 127 780 127 780 124 781 c 1,2,3
 124 781 124 781 125 780 c 0,4,5
 126 780 126 780 128 779 c 1,6,7
 135 795 135 795 156.5 802.5 c 128,-1,8
 178 810 178 810 208 811 c 0,9,10
 240 810 240 810 272.5 793 c 128,-1,11
 305 776 305 776 333 745 c 1,12,13
 421 613 421 613 462.5 546.5 c 128,-1,14
 504 480 504 480 541 410.5 c 128,-1,15
 578 341 578 341 614.5 256 c 128,-1,16
 651 171 651 171 702 35 c 1,17,-1
 692 38 l 2,18,19
 649 50 649 50 624 56 c 128,-1,20
 599 62 599 62 560 68 c 0,21,22
 555 69 555 69 517 73 c 0,23,24
 477 79 477 79 450 81.5 c 128,-1,25
 423 84 423 84 389 84 c 0,26,27
 335 89 335 89 292 89 c 0,28,29
 252 89 252 89 219 85 c 1,30,31
 238 125 238 125 264.5 176 c 128,-1,32
 291 227 291 227 346 334 c 0,33,34
 372 383 372 383 401 439 c 1,35,36
 401 456 401 456 387 456 c 0,37,38
 380 456 380 456 376 451 c 0,39,40
 357 415 357 415 333 367 c 128,-1,41
 309 319 309 319 279 258 c 0,42,43
 250 199 250 199 229.5 157.5 c 128,-1,44
 209 116 209 116 190 81 c 1,45,46
 153 75 153 75 128.5 67.5 c 128,-1,47
 104 60 104 60 74 43 c 1,48,49
 94 91 94 91 114 143 c 0,50,51
 188 326 188 326 238.5 436.5 c 128,-1,52
 289 547 289 547 343 625 c 0,53,54
 343 626 343 626 343 629 c 0,55,56
 344 631 344 631 344 632 c 0,57,58
 344 642 344 642 336 642 c 0,59,60
 331 642 331 642 321 636 c 1,61,62
 289 588 289 588 250.5 511 c 128,-1,63
 212 434 212 434 173 344 c 128,-1,64
 134 254 134 254 99.5 162 c 128,-1,65
 65 70 65 70 40 -6 c 1,66,67
 81 18 81 18 113 30.5 c 128,-1,68
 145 43 145 43 187 52 c 1,69,70
 266 60 266 60 317 60 c 0,71,72
 351 60 351 60 388 57 c 0,73,74
 422 55 422 55 444.5 53 c 128,-1,75
 467 51 467 51 503 46 c 0,76,77
 536 42 536 42 557 40 c 0,78,79
 598 32 598 32 639 22 c 128,-1,80
 680 12 680 12 730 -2 c 0,81,82
 731 -3 731 -3 743 -6 c 1,83,84
 716 87 716 87 670.5 194.5 c 128,-1,85
 625 302 625 302 567.5 411.5 c 128,-1,86
 510 521 510 521 449.5 615.5 c 128,-1,87
 389 710 389 710 334 775 c 1,88,89
 303 804 303 804 268 821.5 c 128,-1,90
 233 839 233 839 207 839 c 0,91,92
 160 836 160 836 136 820.5 c 128,-1,93
 112 805 112 805 90 763 c 0,94,95
 88 759 88 759 87 757 c 0,96,97
 78 740 78 740 74.5 729.5 c 128,-1,98
 71 719 71 719 71 704 c 256,99,100
 71 689 71 689 76 677.5 c 128,-1,101
 81 666 81 666 92 650 c 0,102,103
 107 629 107 629 140 629 c 0,104,105
 168 629 168 629 188 651 c 0,106,107
 208 678 208 678 208 704 c 0,108,109
 208 723 208 723 203 734.5 c 128,-1,110
 198 746 198 746 188 758 c 0,111,112
 169 779 169 779 134 780 c 0,0,1
EndSplineSet
Validated: 517
EndChar

StartChar: N (121)
Encoding: 78 78 38
Width: 491
GlyphClass: 1
Flags: W
LayerCount: 2
Fore
SplineSet
438 -67 m 0,0,1
 429 -67 429 -67 385 -39 c 0,2,3
 292 21 292 21 291 31 c 1,4,-1
 328 21 l 1,5,-1
 411 -13 l 1,6,-1
 194 269 l 1,7,-1
 111 225 l 2,8,9
 93 215 93 215 80.5 208 c 128,-1,10
 68 201 68 201 63 196 c 1,11,-1
 63 -13 l 1,12,-1
 42 -13 l 1,13,-1
 40 595 l 1,14,-1
 389 400 l 1,15,16
 356 367 356 367 306 336 c 0,17,18
 226 288 226 288 216 280 c 1,19,-1
 425 9 l 1,20,21
 423 18 423 18 419.5 32.5 c 128,-1,22
 416 47 416 47 414 62 c 2,23,-1
 411 113 l 1,24,-1
 411 128 l 1,25,26
 426 98 426 98 438.5 45.5 c 128,-1,27
 451 -7 451 -7 451 -37 c 256,28,29
 451 -67 451 -67 438 -67 c 0,0,1
324 389 m 1,30,-1
 185 473 l 2,31,32
 149 494 149 494 115 513 c 0,33,34
 88 528 88 528 63 541 c 1,35,-1
 63 237 l 1,36,37
 284 371 284 371 324 389 c 1,30,-1
EndSplineSet
Validated: 513
EndChar

StartChar: D (113)
Encoding: 68 68 39
Width: 718
GlyphClass: 1
Flags: W
LayerCount: 2
Fore
SplineSet
266 195 m 0,0,1
 268 204 268 204 271 204 c 0,2,3
 273 204 273 204 280 193 c 0,4,5
 288 180 288 180 295 172 c 0,6,7
 324 147 324 147 356 127 c 1,8,9
 391 111 391 111 428 111 c 256,10,11
 465 111 465 111 499 127 c 0,12,13
 535 143 535 143 559 172 c 0,14,15
 586 200 586 200 600 238 c 0,16,17
 614 282 614 282 614 318 c 0,18,19
 613 362 613 362 600 398 c 0,20,21
 584 438 584 438 559 465 c 0,22,23
 532 494 532 494 499 509 c 0,24,25
 485 517 485 517 466 521 c 128,-1,26
 447 525 447 525 428 525 c 0,27,28
 412 525 412 525 391 520.5 c 128,-1,29
 370 516 370 516 356 509 c 0,30,31
 341 502 341 502 325 490 c 128,-1,32
 309 478 309 478 297 465 c 1,33,34
 312 506 312 506 322.5 533.5 c 128,-1,35
 333 561 333 561 342 582.5 c 128,-1,36
 351 604 351 604 364 628.5 c 128,-1,37
 377 653 377 653 395 685 c 1,38,39
 432 689 432 689 462 693 c 128,-1,40
 492 697 492 697 511.5 700.5 c 128,-1,41
 531 704 531 704 551 709 c 128,-1,42
 571 714 571 714 591 720 c 0,43,44
 599 726 599 726 599 738 c 0,45,46
 599 748 599 748 590 750 c 1,47,48
 470 713 470 713 338 713 c 256,49,50
 206 713 206 713 65 750 c 1,51,52
 59 746 59 746 59 716 c 0,53,54
 58 680 58 680 55 644 c 128,-1,55
 52 608 52 608 40 550 c 1,56,57
 57 585 57 585 65 603.5 c 128,-1,58
 73 622 73 622 77.5 639.5 c 128,-1,59
 82 657 82 657 83.5 674.5 c 128,-1,60
 85 692 85 692 85 719 c 1,61,62
 125 708 125 708 153 701.5 c 128,-1,63
 181 695 181 695 205 691 c 128,-1,64
 229 687 229 687 254 686 c 128,-1,65
 279 685 279 685 311 685 c 0,66,67
 318 685 318 685 335 685 c 0,68,69
 363 685 363 685 365 685 c 1,70,71
 362 679 362 679 343 643 c 0,72,73
 308 575 308 575 284 521.5 c 128,-1,74
 260 468 260 468 240 400 c 1,75,76
 240 376 240 376 251 376 c 0,77,78
 264 376 264 376 279 404 c 0,79,80
 280 405 280 405 284 413 c 0,81,82
 299 438 299 438 310 449 c 2,83,-1
 311 450 l 2,84,85
 329 466 329 466 341 475 c 128,-1,86
 353 484 353 484 365 488 c 0,87,88
 377 494 377 494 395.5 498.5 c 128,-1,89
 414 503 414 503 428 503 c 0,90,91
 444 503 444 503 461 499 c 128,-1,92
 478 495 478 495 490 488 c 0,93,94
 525 473 525 473 545 449 c 0,95,96
 565 428 565 428 581 390 c 0,97,98
 593 354 593 354 593 318 c 0,99,100
 593 285 593 285 581 246 c 0,101,102
 570 216 570 216 545 187 c 0,103,104
 522 161 522 161 490 148 c 0,105,106
 462 134 462 134 428 134 c 0,107,108
 391 134 391 134 364 148 c 0,109,110
 342 161 342 161 310 187 c 0,111,112
 304 194 304 194 294 209 c 0,113,114
 285 221 285 221 283 221 c 0,115,116
 271 249 271 249 255 249 c 0,117,118
 240 249 240 249 240 223 c 0,119,120
 237 107 237 107 236.5 77 c 128,-1,121
 236 47 236 47 235 0 c 0,122,123
 234 -44 234 -44 233 -119 c 0,124,125
 233 -133 233 -133 233 -146 c 0,126,127
 233 -153 233 -153 232 -170 c 0,128,129
 232 -181 232 -181 232 -188 c 0,130,131
 232 -209 232 -209 235 -224 c 0,132,133
 241 -250 241 -250 261 -273 c 0,134,135
 279 -291 279 -291 300 -297 c 1,136,-1
 302 -298 l 2,137,138
 315 -301 315 -301 323 -301 c 0,139,140
 324 -301 324 -301 327 -301 c 0,141,142
 331 -300 331 -300 333 -300 c 0,143,144
 370 -299 370 -299 389 -275 c 0,145,146
 404 -256 404 -256 410 -242.5 c 128,-1,147
 416 -229 416 -229 416 -210 c 0,148,149
 416 -190 416 -190 410 -176.5 c 128,-1,150
 404 -163 404 -163 389 -145 c 0,151,152
 373 -125 373 -125 340 -119 c 0,153,154
 338 -119 338 -119 333 -119 c 0,155,156
 330 -118 330 -118 327 -118 c 256,157,158
 324 -118 324 -118 321 -119 c 0,159,160
 316 -119 316 -119 314 -119 c 0,161,162
 281 -125 281 -125 261 -145 c 1,163,164
 263 -89 263 -89 263 -71 c 128,-1,165
 263 -53 263 -53 264 -35 c 0,166,167
 264 0 264 0 265 130 c 0,168,169
 266 160 266 160 266 195 c 0,0,1
307 -272 m 0,170,171
 292 -269 292 -269 279 -256 c 0,172,173
 261 -233 261 -233 261 -210 c 0,174,175
 261 -195 261 -195 265 -186 c 128,-1,176
 269 -177 269 -177 278 -165 c 2,177,-1
 279 -163 l 1,178,179
 299 -145 299 -145 326 -145 c 0,180,181
 355 -145 355 -145 371 -163 c 0,182,183
 382 -178 382 -178 386 -187 c 128,-1,184
 390 -196 390 -196 390 -210 c 0,185,186
 390 -225 390 -225 386 -233.5 c 128,-1,187
 382 -242 382 -242 371 -256 c 0,188,189
 357 -275 357 -275 331 -275 c 0,190,191
 330 -275 330 -275 327 -276 c 0,192,193
 325 -276 325 -276 323 -276 c 0,194,195
 317 -276 317 -276 307 -272 c 0,170,171
617 69 m 0,196,197
 615 69 615 69 612 69 c 0,198,199
 609 70 609 70 607 70 c 256,200,201
 605 70 605 70 602 69 c 0,202,203
 599 69 599 69 597 69 c 0,204,205
 571 64 571 64 559 49 c 0,206,207
 547 35 547 35 542.5 24.5 c 128,-1,208
 538 14 538 14 538 -1 c 256,209,210
 538 -16 538 -16 543 -26.5 c 128,-1,211
 548 -37 548 -37 559 -51 c 0,212,213
 573 -70 573 -70 602 -71 c 0,214,215
 604 -71 604 -71 606 -71 c 0,216,217
 609 -72 609 -72 610 -72 c 0,218,219
 617 -72 617 -72 628 -68 c 0,220,221
 645 -64 645 -64 658 -50 c 0,222,223
 678 -27 678 -27 678 -1 c 0,224,225
 678 16 678 16 673 27 c 128,-1,226
 668 38 668 38 658 49 c 0,227,228
 643 64 643 64 617 69 c 0,196,197
EndSplineSet
Validated: 521
EndChar

StartChar: T (110)
Encoding: 84 84 40
Width: 779
GlyphClass: 1
Flags: W
LayerCount: 2
Fore
SplineSet
678 111 m 0,0,1
 676 111 676 111 673 111 c 0,2,3
 670 112 670 112 668 112 c 256,4,5
 666 112 666 112 663 111 c 0,6,7
 660 111 660 111 658 111 c 0,8,9
 632 106 632 106 620 91 c 0,10,11
 608 77 608 77 603.5 66.5 c 128,-1,12
 599 56 599 56 599 41 c 256,13,14
 599 26 599 26 604 15.5 c 128,-1,15
 609 5 609 5 620 -9 c 0,16,17
 634 -28 634 -28 663 -29 c 0,18,19
 665 -29 665 -29 667 -29 c 0,20,21
 670 -30 670 -30 671 -30 c 0,22,23
 678 -30 678 -30 689 -26 c 0,24,25
 706 -22 706 -22 719 -8 c 0,26,27
 739 15 739 15 739 41 c 0,28,29
 739 58 739 58 734 69 c 128,-1,30
 729 80 729 80 719 91 c 0,31,32
 704 106 704 106 678 111 c 0,0,1
526 327 m 0,33,34
 518 344 518 344 512 353 c 128,-1,35
 506 362 506 362 495 370 c 0,36,37
 480 383 480 383 455 388 c 0,38,39
 453 388 453 388 450 388 c 0,40,41
 447 389 447 389 445 389 c 256,42,43
 443 389 443 389 440 388 c 0,44,45
 437 388 437 388 435 388 c 0,46,47
 409 383 409 383 397 368 c 0,48,49
 385 354 385 354 380.5 343.5 c 128,-1,50
 376 333 376 333 376 318 c 256,51,52
 376 303 376 303 381 292.5 c 128,-1,53
 386 282 386 282 397 268 c 0,54,55
 411 249 411 249 440 248 c 0,56,57
 442 248 442 248 444 248 c 0,58,59
 447 247 447 247 448 247 c 0,60,61
 455 247 455 247 466 251 c 0,62,63
 475 254 475 254 483.5 261.5 c 128,-1,64
 492 269 492 269 503 290 c 1,65,66
 513 259 513 259 517 232 c 128,-1,67
 521 205 521 205 521 165 c 1,68,69
 503 119 503 119 473.5 100.5 c 128,-1,70
 444 82 444 82 404 82 c 0,71,72
 373 82 373 82 307 96 c 0,73,74
 240 110 240 110 208 110 c 0,75,76
 177 110 177 110 151.5 100 c 128,-1,77
 126 90 126 90 106 66 c 1,78,79
 172 190 172 190 228.5 285 c 128,-1,80
 285 380 285 380 334 450 c 128,-1,81
 383 520 383 520 428.5 574.5 c 128,-1,82
 474 629 474 629 523 678 c 0,83,84
 537 687 537 687 537 693 c 0,85,86
 537 698 537 698 530 701 c 2,87,-1
 246 702 l 1,88,89
 146 739 146 739 55 802 c 1,90,91
 50 784 50 784 47 752 c 128,-1,92
 44 720 44 720 44 686 c 0,93,94
 44 653 44 653 47 624 c 128,-1,95
 50 595 50 595 55 579 c 1,96,97
 92 606 92 606 143 632.5 c 128,-1,98
 194 659 194 659 246 679 c 1,99,-1
 477 679 l 1,100,101
 424 621 424 621 385.5 573 c 128,-1,102
 347 525 347 525 300 455.5 c 128,-1,103
 253 386 253 386 190 279 c 128,-1,104
 127 172 127 172 40 13 c 1,105,106
 42 -6 42 -6 52 -6 c 0,107,108
 64 -6 64 -6 83 19 c 0,109,110
 115 52 115 52 153 65.5 c 128,-1,111
 191 79 191 79 234 79 c 0,112,113
 269 79 269 79 338 68 c 0,114,115
 394 58 394 58 419 58 c 0,116,117
 450 58 450 58 472 70 c 128,-1,118
 494 82 494 82 506 110 c 1,119,120
 520 48 520 48 520 0 c 0,121,122
 520 -33 520 -33 512.5 -59.5 c 128,-1,123
 505 -86 505 -86 489 -102 c 1,124,125
 430 -102 430 -102 389.5 -90.5 c 128,-1,126
 349 -79 349 -79 340 -51 c 1,127,128
 334 -46 334 -46 329 -46 c 0,129,130
 322 -46 322 -46 322 -57 c 0,131,132
 322 -63 322 -63 324 -71 c 0,133,134
 345 -99 345 -99 397 -116.5 c 128,-1,135
 449 -134 449 -134 504 -134 c 1,136,137
 527 -111 527 -111 538.5 -73.5 c 128,-1,138
 550 -36 550 -36 550 11 c 0,139,140
 550 70 550 70 532 130 c 1,141,142
 547 152 547 152 547 197 c 0,143,144
 547 225 547 225 541.5 258.5 c 128,-1,145
 536 292 536 292 526 327 c 0,33,34
683 -5 m 2,146,-1
 682 -5 l 2,147,148
 675 -8 675 -8 671 -8 c 0,149,150
 670 -8 670 -8 668 -7 c 0,151,152
 666 -7 666 -7 665 -7 c 0,153,154
 646 -7 646 -7 636 7 c 0,155,156
 622 24 622 24 622 41 c 0,157,158
 622 57 622 57 636 75 c 0,159,160
 648 88 648 88 669 88 c 0,161,162
 688 88 688 88 703 75 c 0,163,164
 704 74 704 74 705 73 c 0,165,166
 711 64 711 64 713.5 58 c 128,-1,167
 716 52 716 52 716 41 c 0,168,169
 716 26 716 26 703 7 c 0,170,171
 694 -2 694 -2 683 -5 c 2,146,-1
71 765 m 1,172,173
 104 742 104 742 136 724.5 c 128,-1,174
 168 707 168 707 205 692 c 1,175,176
 163 676 163 676 91 635 c 0,177,178
 78 628 78 628 72 624 c 1,179,180
 69 661 69 661 69 701 c 0,181,182
 69 735 69 735 71 765 c 1,172,173
EndSplineSet
Validated: 521
EndChar

StartChar: B (140)
Encoding: 66 66 41
Width: 804
GlyphClass: 1
Flags: W
LayerCount: 2
Fore
SplineSet
201 -106 m 1,0,-1
 424 144 l 1,1,2
 419 102 419 102 416.5 57 c 128,-1,3
 414 12 414 12 414 -34 c 0,4,5
 414 -107 414 -107 422 -172.5 c 128,-1,6
 430 -238 430 -238 448 -288 c 1,7,8
 449 -285 449 -285 450 -283 c 0,9,10
 466 -256 466 -256 472 -241 c 128,-1,11
 478 -226 478 -226 478 -211 c 0,12,13
 464 -131 464 -131 457.5 -58 c 128,-1,14
 451 15 451 15 451 76 c 256,15,16
 451 137 451 137 457 181 c 1,17,-1
 715 471 l 2,18,19
 743 503 743 503 753.5 521.5 c 128,-1,20
 764 540 764 540 764 561 c 0,21,22
 764 578 764 578 757 602 c 1,23,24
 737 626 737 626 714 639 c 128,-1,25
 691 652 691 652 668 652 c 0,26,27
 639 652 639 652 615.5 630 c 128,-1,28
 592 608 592 608 580 562 c 0,29,30
 580 560 580 560 580 555 c 0,31,32
 579 552 579 552 579 548 c 0,33,34
 579 522 579 522 587.5 505 c 128,-1,35
 596 488 596 488 609.5 479.5 c 128,-1,36
 623 471 623 471 635 469 c 128,-1,37
 647 467 647 467 659 466 c 1,38,-1
 464 242 l 1,39,40
 472 312 472 312 483 378.5 c 128,-1,41
 494 445 494 445 508 508 c 128,-1,42
 522 571 522 571 537.5 636 c 128,-1,43
 553 701 553 701 574 782 c 0,44,45
 578 797 578 797 581 806 c 0,46,47
 591 844 591 844 591 855 c 0,48,49
 591 861 591 861 589 867 c 1,50,51
 581 869 581 869 570 869 c 0,52,53
 541 869 541 869 493.5 847.5 c 128,-1,54
 446 826 446 826 378 774 c 1,55,56
 382 796 382 796 382 816 c 0,57,58
 382 838 382 838 377.5 852.5 c 128,-1,59
 373 867 373 867 363 867 c 0,60,61
 359 867 359 867 353 864 c 0,62,63
 337 853 337 853 315 835.5 c 128,-1,64
 293 818 293 818 272.5 798 c 128,-1,65
 252 778 252 778 233.5 758 c 128,-1,66
 215 738 215 738 204 722 c 1,67,68
 206 751 206 751 208 775.5 c 128,-1,69
 210 800 210 800 212 820 c 0,70,71
 212 835 212 835 213.5 849 c 128,-1,72
 215 863 215 863 216 873 c 1,73,74
 205 850 205 850 158 787 c 0,75,76
 119 736 119 736 92 696 c 128,-1,77
 65 656 65 656 40 608 c 0,78,79
 40 604 40 604 42 600 c 0,80,81
 42 598 42 598 43 595 c 1,82,83
 53 611 53 611 56.5 617 c 128,-1,84
 60 623 60 623 64 631 c 0,85,86
 67 638 67 638 71 644.5 c 128,-1,87
 75 651 75 651 84.5 665 c 128,-1,88
 94 679 94 679 115 707 c 128,-1,89
 136 735 136 735 171 782 c 1,90,91
 167 726 167 726 165.5 694.5 c 128,-1,92
 164 663 164 663 164 638 c 0,93,94
 164 609 164 609 166 578 c 128,-1,95
 168 547 168 547 175 483 c 1,96,97
 192 494 192 494 196.5 499 c 128,-1,98
 201 504 201 504 204 512 c 0,99,100
 206 517 206 517 208 521 c 0,101,102
 206 559 206 559 204 600 c 0,103,104
 204 623 204 623 203.5 635.5 c 128,-1,105
 203 648 203 648 203 674 c 1,106,107
 214 688 214 688 221 696.5 c 128,-1,108
 228 705 228 705 236 712 c 128,-1,109
 244 719 244 719 257.5 730 c 128,-1,110
 271 741 271 741 294 759 c 2,111,-1
 330 786 l 1,112,113
 326 720 326 720 325 693.5 c 128,-1,114
 324 667 324 667 324 641 c 0,115,116
 324 609 324 609 327 575 c 128,-1,117
 330 541 330 541 336 483 c 1,118,119
 356 492 356 492 363 499.5 c 128,-1,120
 370 507 370 507 374 518 c 0,121,122
 374 521 374 521 375 522 c 0,123,124
 370 528 370 528 367 545.5 c 128,-1,125
 364 563 364 563 364 589 c 0,126,127
 364 607 364 607 365.5 630 c 128,-1,128
 367 653 367 653 368 682 c 2,129,-1
 370 706 l 1,130,131
 391 719 391 719 423 740 c 0,132,133
 449 756 449 756 465 765.5 c 128,-1,134
 481 775 481 775 495.5 781 c 128,-1,135
 510 787 510 787 525 790.5 c 128,-1,136
 540 794 540 794 559 796 c 1,137,138
 553 775 553 775 539 722 c 128,-1,139
 525 669 525 669 507 592.5 c 128,-1,140
 489 516 489 516 469 418 c 128,-1,141
 449 320 449 320 433 217 c 1,142,-1
 188 -60 l 1,143,144
 186 -71 186 -71 186 -77 c 0,145,146
 186 -95 186 -95 201 -106 c 1,0,-1
542 76 m 1,147,148
 528 61 528 61 507.5 53.5 c 128,-1,149
 487 46 487 46 466 46 c 0,150,151
 437 46 437 46 417 58 c 128,-1,152
 397 70 397 70 397 89 c 0,153,154
 397 97 397 97 400 104 c 0,155,156
 418 152 418 152 458 152 c 0,157,158
 481 152 481 152 503.5 132.5 c 128,-1,159
 526 113 526 113 542 76 c 1,147,148
EndSplineSet
Validated: 517
EndChar

StartChar: R (111)
Encoding: 82 82 42
Width: 862
GlyphClass: 1
Flags: W
LayerCount: 2
Fore
SplineSet
766 279 m 2,0,-1
 765 279 l 2,1,2
 758 276 758 276 754 276 c 0,3,4
 753 276 753 276 751 277 c 0,5,6
 749 277 749 277 748 277 c 0,7,8
 729 277 729 277 719 291 c 0,9,10
 705 308 705 308 705 325 c 0,11,12
 705 341 705 341 719 359 c 0,13,14
 731 372 731 372 752 372 c 0,15,16
 771 372 771 372 786 359 c 0,17,18
 787 358 787 358 788 357 c 0,19,20
 794 348 794 348 796.5 342 c 128,-1,21
 799 336 799 336 799 325 c 0,22,23
 799 310 799 310 786 291 c 0,24,25
 777 282 777 282 766 279 c 2,0,-1
761 395 m 0,26,27
 759 395 759 395 756 395 c 0,28,29
 753 396 753 396 751 396 c 256,30,31
 749 396 749 396 746 395 c 0,32,33
 743 395 743 395 741 395 c 0,34,35
 715 390 715 390 703 375 c 0,36,37
 691 361 691 361 686.5 350.5 c 128,-1,38
 682 340 682 340 682 325 c 256,39,40
 682 310 682 310 687 299.5 c 128,-1,41
 692 289 692 289 703 275 c 0,42,43
 717 256 717 256 746 255 c 0,44,45
 748 255 748 255 750 255 c 0,46,47
 753 254 753 254 754 254 c 0,48,49
 761 254 761 254 772 258 c 0,50,51
 789 263 789 263 802 276 c 0,52,53
 822 299 822 299 822 325 c 0,54,55
 822 342 822 342 817 353 c 128,-1,56
 812 364 812 364 802 375 c 0,57,58
 787 390 787 390 761 395 c 0,26,27
78 11 m 1,59,60
 81 64 81 64 102 106.5 c 128,-1,61
 123 149 123 149 159 178.5 c 128,-1,62
 195 208 195 208 242.5 223.5 c 128,-1,63
 290 239 290 239 343 239 c 0,64,65
 416 239 416 239 492.5 210.5 c 128,-1,66
 569 182 569 182 637 125 c 1,67,68
 605 273 605 273 605 401 c 0,69,70
 605 488 605 488 619.5 572.5 c 128,-1,71
 634 657 634 657 662 750 c 1,72,73
 590 703 590 703 539 673 c 128,-1,74
 488 643 488 643 438.5 621 c 128,-1,75
 389 599 389 599 339 587 c 128,-1,76
 289 575 289 575 236 575 c 0,77,78
 147 575 147 575 107.5 603 c 128,-1,79
 68 631 68 631 68 673 c 0,80,81
 68 708 68 708 90 737.5 c 128,-1,82
 112 767 112 767 138 770 c 0,83,84
 149 770 149 770 149 784 c 0,85,86
 149 800 149 800 136 800 c 0,87,88
 96 793 96 793 68 756 c 128,-1,89
 40 719 40 719 40 675 c 0,90,91
 40 650 40 650 51 626.5 c 128,-1,92
 62 603 62 603 85.5 584.5 c 128,-1,93
 109 566 109 566 147 555.5 c 128,-1,94
 185 545 185 545 237 545 c 0,95,96
 284 545 284 545 334.5 556.5 c 128,-1,97
 385 568 385 568 434 588 c 128,-1,98
 483 608 483 608 529 634 c 128,-1,99
 575 660 575 660 617 690 c 1,100,101
 598 637 598 637 587.5 561.5 c 128,-1,102
 577 486 577 486 577 404 c 0,103,104
 577 283 577 283 600 185 c 1,105,106
 563 221 563 221 489.5 246 c 128,-1,107
 416 271 416 271 338 271 c 0,108,109
 281 271 281 271 230 256 c 128,-1,110
 179 241 179 241 138.5 207 c 128,-1,111
 98 173 98 173 74 116 c 128,-1,112
 50 59 50 59 50 -19 c 0,113,114
 50 -27 50 -27 50 -36 c 0,115,116
 51 -48 51 -48 51 -54 c 0,117,118
 51 -74 51 -74 58 -88 c 128,-1,119
 65 -102 65 -102 78 -117 c 0,120,121
 96 -135 96 -135 117 -141 c 1,122,-1
 119 -142 l 2,123,124
 132 -145 132 -145 140 -145 c 0,125,126
 141 -145 141 -145 144 -145 c 0,127,128
 148 -144 148 -144 150 -144 c 0,129,130
 187 -143 187 -143 206 -119 c 0,131,132
 221 -100 221 -100 227 -86.5 c 128,-1,133
 233 -73 233 -73 233 -54 c 0,134,135
 233 -38 233 -38 230 -27.5 c 128,-1,136
 227 -17 227 -17 218 -4 c 0,137,138
 214 4 214 4 206 11 c 0,139,140
 189 31 189 31 161 37 c 0,141,142
 158 37 158 37 152 38 c 0,143,144
 148 39 148 39 145 39 c 256,145,146
 142 39 142 39 138 38 c 256,147,148
 134 37 134 37 131 37 c 0,149,150
 98 31 98 31 78 11 c 1,59,60
124 -116 m 0,151,152
 109 -113 109 -113 96 -100 c 0,153,154
 78 -77 78 -77 78 -54 c 0,155,156
 78 -39 78 -39 82 -30 c 128,-1,157
 86 -21 86 -21 95 -9 c 2,158,-1
 96 -7 l 1,159,160
 116 11 116 11 143 11 c 0,161,162
 172 11 172 11 188 -7 c 0,163,164
 199 -22 199 -22 203 -31 c 128,-1,165
 207 -40 207 -40 207 -54 c 0,166,167
 207 -69 207 -69 203 -77.5 c 128,-1,168
 199 -86 199 -86 188 -100 c 0,169,170
 174 -119 174 -119 148 -119 c 0,171,172
 147 -119 147 -119 144 -120 c 0,173,174
 142 -120 142 -120 140 -120 c 0,175,176
 134 -120 134 -120 124 -116 c 0,151,152
EndSplineSet
Validated: 521
EndChar

StartChar: grve acnt (134)
Encoding: 96 96 43
Width: 1187
GlyphClass: 1
Flags: W
LayerCount: 2
Fore
SplineSet
879 266 m 1,0,1
 871 241 871 241 859.5 229 c 128,-1,2
 848 217 848 217 835 217 c 0,3,4
 819 217 819 217 806 232.5 c 128,-1,5
 793 248 793 248 788 273 c 1,6,7
 801 292 801 292 813.5 302.5 c 128,-1,8
 826 313 826 313 837 313 c 0,9,10
 860 313 860 313 879 266 c 1,0,1
919 263 m 1,11,12
 892 364 892 364 848 364 c 0,13,14
 806 364 806 364 760 271 c 1,15,16
 764 219 764 219 781 194.5 c 128,-1,17
 798 170 798 170 823 170 c 0,18,19
 838 170 838 170 853 178 c 128,-1,20
 868 186 868 186 881.5 199 c 128,-1,21
 895 212 895 212 905 229 c 128,-1,22
 915 246 915 246 919 263 c 1,11,12
667 -70 m 1,23,24
 667 -37 667 -37 664.5 -15 c 128,-1,25
 662 7 662 7 657 38 c 0,26,27
 652 64 652 64 650 80.5 c 128,-1,28
 648 97 648 97 648 120 c 256,29,30
 648 143 648 143 651 171 c 128,-1,31
 654 199 654 199 660.5 235 c 128,-1,32
 667 271 667 271 679 321.5 c 128,-1,33
 691 372 691 372 708 430 c 1,34,35
 795 501 795 501 876 530.5 c 128,-1,36
 957 560 957 560 1029 560 c 0,37,38
 1061 560 1061 560 1091 555 c 0,39,40
 1094 551 1094 551 1099 551 c 0,41,42
 1105 551 1105 551 1114 559 c 128,-1,43
 1123 567 1123 567 1130.5 580.5 c 128,-1,44
 1138 594 1138 594 1142.5 608.5 c 128,-1,45
 1147 623 1147 623 1147 633 c 0,46,47
 1147 652 1147 652 1132 652 c 1,48,-1
 1101 661 l 2,49,50
 1020 686 1020 686 972 701.5 c 128,-1,51
 924 717 924 717 883.5 733.5 c 128,-1,52
 843 750 843 750 811 770 c 128,-1,53
 779 790 779 790 756 814 c 0,54,55
 753 815 753 815 751 815 c 0,56,57
 747 815 747 815 740 811 c 128,-1,58
 733 807 733 807 720 796 c 1,59,60
 735 726 735 726 735 665 c 0,61,62
 735 607 735 607 723 558 c 128,-1,63
 711 509 711 509 687 439 c 0,64,65
 671 393 671 393 660.5 360.5 c 128,-1,66
 650 328 650 328 641 287.5 c 128,-1,67
 632 247 632 247 626.5 197.5 c 128,-1,68
 621 148 621 148 621 92 c 0,69,70
 621 31 621 31 628 -37 c 1,71,72
 598 -29 598 -29 567.5 -15.5 c 128,-1,73
 537 -2 537 -2 488 23 c 0,74,75
 403 64 403 64 349 87 c 2,76,-1
 347 88 l 2,77,78
 309 106 309 106 285.5 114 c 128,-1,79
 262 122 262 122 236 122 c 0,80,81
 204 122 204 122 165 105.5 c 128,-1,82
 126 89 126 89 76 50 c 1,83,84
 40 -17 40 -17 40 -55 c 0,85,86
 40 -81 40 -81 54.5 -102.5 c 128,-1,87
 69 -124 69 -124 100 -147 c 1,88,89
 140 -160 140 -160 167 -160 c 0,90,91
 184 -160 184 -160 203 -155 c 0,92,93
 250 -132 250 -132 276 -110.5 c 128,-1,94
 302 -89 302 -89 321 -62 c 1,95,96
 341 -20 341 -20 341 50 c 0,97,98
 341 87 341 87 337 124 c 128,-1,99
 333 161 333 161 323 222 c 0,100,101
 315 279 315 279 311 313 c 128,-1,102
 307 347 307 347 307 378 c 0,103,104
 307 427 307 427 319 457 c 1,105,106
 345 486 345 486 375.5 506 c 128,-1,107
 406 526 406 526 438.5 538 c 128,-1,108
 471 550 471 550 504 555 c 128,-1,109
 537 560 537 560 568 560 c 0,110,111
 601 560 601 560 635 555 c 0,112,113
 638 551 638 551 643 551 c 0,114,115
 650 551 650 551 658.5 559.5 c 128,-1,116
 667 568 667 568 674.5 581.5 c 128,-1,117
 682 595 682 595 686.5 609 c 128,-1,118
 691 623 691 623 691 633 c 0,119,120
 691 652 691 652 676 652 c 1,121,-1
 647 661 l 2,122,123
 564 686 564 686 516 701.5 c 128,-1,124
 468 717 468 717 427 733.5 c 128,-1,125
 386 750 386 750 354 770 c 128,-1,126
 322 790 322 790 299 814 c 0,127,128
 297 815 297 815 294 815 c 0,129,130
 290 815 290 815 283.5 811 c 128,-1,131
 277 807 277 807 263 796 c 1,132,133
 250 730 250 730 244 677.5 c 128,-1,134
 238 625 238 625 238 578 c 0,135,136
 238 526 238 526 245 479.5 c 128,-1,137
 252 433 252 433 266 365 c 0,138,139
 284 278 284 278 295.5 203 c 128,-1,140
 307 128 307 128 311 22 c 1,141,142
 306 0 306 0 299 -14.5 c 128,-1,143
 292 -29 292 -29 280 -44 c 0,144,145
 256 -68 256 -68 242.5 -75 c 128,-1,146
 229 -82 229 -82 209 -82 c 0,147,148
 206 -82 206 -82 199 -82 c 0,149,150
 188 -81 188 -81 184 -81 c 0,151,152
 140 -73 140 -73 121.5 -62.5 c 128,-1,153
 103 -52 103 -52 103 -34 c 0,154,155
 103 -21 103 -21 114 0 c 0,156,157
 126 18 126 18 143 25.5 c 128,-1,158
 160 33 160 33 186 33 c 0,159,160
 208 33 208 33 249 27 c 0,161,162
 274 20 274 20 286.5 15.5 c 128,-1,163
 299 11 299 11 317 -1 c 0,164,165
 363 -21 363 -21 431 -53 c 0,166,167
 512 -91 512 -91 544.5 -104.5 c 128,-1,168
 577 -118 577 -118 599 -118 c 0,169,170
 618 -118 618 -118 632.5 -107 c 128,-1,171
 647 -96 647 -96 667 -70 c 1,23,24
293 499 m 1,172,173
 288 536 288 536 286 560.5 c 128,-1,174
 284 585 284 585 284 608 c 256,175,176
 284 631 284 631 286 656.5 c 128,-1,177
 288 682 288 682 291 729 c 0,178,179
 295 768 295 768 295 769 c 1,180,181
 318 741 318 741 334.5 722.5 c 128,-1,182
 351 704 351 704 370 688.5 c 128,-1,183
 389 673 389 673 413 658.5 c 128,-1,184
 437 644 437 644 474 625 c 1,185,186
 412 597 412 597 379.5 574 c 128,-1,187
 347 551 347 551 315 520 c 0,188,189
 302 506 302 506 293 499 c 1,172,173
786 536 m 1,190,191
 791 566 791 566 793 585.5 c 128,-1,192
 795 605 795 605 795 626 c 0,193,194
 795 646 795 646 793.5 668.5 c 128,-1,195
 792 691 792 691 789 742 c 2,196,-1
 787 770 l 1,197,198
 803 743 803 743 817 725 c 128,-1,199
 831 707 831 707 848 692.5 c 128,-1,200
 865 678 865 678 887.5 664 c 128,-1,201
 910 650 910 650 946 631 c 1,202,203
 907 613 907 613 882 601 c 128,-1,204
 857 589 857 589 842.5 580 c 128,-1,205
 828 571 828 571 817.5 563 c 128,-1,206
 807 555 807 555 788 538 c 2,207,-1
 786 536 l 1,190,191
EndSplineSet
Validated: 517
EndChar

StartChar: rt sq bkt (101)
Encoding: 93 93 44
Width: 830
GlyphClass: 1
Flags: W
LayerCount: 2
Fore
SplineSet
761 523 m 1,0,-1
 730 511 l 1,1,2
 733 501 733 501 737 489 c 0,3,4
 746 458 746 458 750.5 436 c 128,-1,5
 755 414 755 414 755 380 c 0,6,7
 755 348 755 348 750.5 325 c 128,-1,8
 746 302 746 302 736 270 c 0,9,10
 730 250 730 250 730 249 c 0,11,12
 720 221 720 221 704 198 c 1,13,-1
 556 344 l 1,14,-1
 559 352 l 2,15,16
 564 369 564 369 565 379 c 0,17,18
 565 381 565 381 566 386 c 0,19,20
 567 390 567 390 567 393 c 0,21,22
 567 403 567 403 563 417 c 0,23,24
 561 423 561 423 559 431 c 0,25,26
 554 444 554 444 553 450 c 0,27,28
 541 480 541 480 521 499 c 0,29,30
 511 508 511 508 498 516.5 c 128,-1,31
 485 525 485 525 473 530 c 0,32,33
 444 543 444 543 415 543 c 0,34,35
 385 543 385 543 359 530 c 0,36,37
 334 520 334 520 309 499 c 0,38,39
 286 475 286 475 278 450 c 0,40,41
 275 442 275 442 272.5 431.5 c 128,-1,42
 270 421 270 421 268 416 c 0,43,44
 265 406 265 406 265 394 c 2,45,-1
 266 387 l 2,46,47
 266 383 266 383 266 379 c 0,48,49
 269 363 269 363 275 347 c 1,50,-1
 125 198 l 1,51,52
 110 222 110 222 100 249 c 0,53,54
 98 257 98 257 91 281 c 0,55,56
 83 310 83 310 79 330.5 c 128,-1,57
 75 351 75 351 75 380 c 256,58,59
 75 409 75 409 79 430.5 c 128,-1,60
 83 452 83 452 91 479 c 0,61,62
 97 498 97 498 100 511 c 1,63,-1
 69 523 l 1,64,65
 65 510 65 510 60 495 c 0,66,67
 50 461 50 461 45 437.5 c 128,-1,68
 40 414 40 414 40 380 c 256,69,70
 40 346 40 346 45 321.5 c 128,-1,71
 50 297 50 297 61 264 c 0,72,73
 67 245 67 245 69 237 c 0,74,75
 81 203 81 203 100.5 173.5 c 128,-1,76
 120 144 120 144 150 116 c 0,77,78
 176 92 176 92 208.5 70 c 128,-1,79
 241 48 241 48 273 35 c 0,80,81
 337 6 337 6 415 6 c 0,82,83
 492 6 492 6 558 35 c 0,84,85
 590 48 590 48 623 70 c 128,-1,86
 656 92 656 92 680 116 c 0,87,88
 710 145 710 145 729.5 174 c 128,-1,89
 749 203 749 203 761 237 c 0,90,91
 763 245 763 245 769 264 c 0,92,93
 780 298 780 298 785 322 c 128,-1,94
 790 346 790 346 790 380 c 256,95,96
 790 414 790 414 785 438 c 128,-1,97
 780 462 780 462 770 495 c 0,98,99
 765 510 765 510 761 523 c 1,0,-1
684 171 m 1,100,101
 677 161 677 161 660 144 c 2,102,103
 660 144 660 144 655 139 c 0,104,105
 633 118 633 118 603 98 c 128,-1,106
 573 78 573 78 545 66 c 0,107,108
 496 43 496 43 434 40 c 1,109,-1
 434 244 l 1,110,111
 452 245 452 245 473 254 c 0,112,113
 485 259 485 259 498 268 c 128,-1,114
 511 277 511 277 521 286 c 0,115,116
 532 296 532 296 543 310 c 1,117,-1
 684 171 l 1,100,101
289 311 m 1,118,119
 294 301 294 301 309 286 c 0,120,121
 336 263 336 263 359 254 c 0,122,123
 376 245 376 245 396 244 c 1,124,-1
 396 40 l 1,125,126
 338 43 338 43 285 66 c 0,127,128
 257 78 257 78 227 98 c 128,-1,129
 197 118 197 118 175 139 c 0,130,131
 156 158 156 158 145 168 c 1,132,-1
 289 311 l 1,118,119
524 437 m 0,133,134
 533 408 533 408 533 392 c 0,135,136
 533 379 533 379 528 361 c 0,137,138
 526 354 526 354 524 347 c 0,139,140
 518 329 518 329 498 309 c 0,141,142
 491 303 491 303 480.5 296 c 128,-1,143
 470 289 470 289 461 284 c 0,144,145
 436 274 436 274 415 274 c 256,146,147
 394 274 394 274 369 284 c 0,148,149
 359 290 359 290 349.5 296.5 c 128,-1,150
 340 303 340 303 334 309 c 0,151,152
 313 327 313 327 306 347 c 0,153,154
 305 354 305 354 303 363 c 0,155,156
 300 378 300 378 299 386 c 0,157,158
 299 407 299 407 301 420 c 0,159,160
 305 429 305 429 306 437 c 0,161,162
 312 456 312 456 334 476 c 0,163,164
 340 483 340 483 350 490 c 128,-1,165
 360 497 360 497 369 501 c 0,166,167
 394 511 394 511 415 511 c 256,168,169
 436 511 436 511 461 501 c 0,170,171
 471 497 471 497 481 490.5 c 128,-1,172
 491 484 491 484 498 476 c 0,173,174
 518 454 518 454 524 437 c 0,133,134
EndSplineSet
Validated: 521
EndChar

StartChar: rt slash (122)
Encoding: 47 47 45
Width: 680
GlyphClass: 1
Flags: W
LayerCount: 2
Fore
SplineSet
430 -180 m 1,0,-1
 370 0 l 1,1,-1
 370 421 l 1,2,3
 412 425 412 425 454 443 c 0,4,5
 479 454 479 454 506 471.5 c 128,-1,6
 533 489 533 489 552 508 c 0,7,8
 598 553 598 553 617 605 c 0,9,10
 620 614 620 614 624 628 c 0,11,12
 632 654 632 654 636 673 c 128,-1,13
 640 692 640 692 640 720 c 2,14,-1
 640 750 l 1,15,-1
 40 750 l 1,16,-1
 40 720 l 2,17,18
 40 692 40 692 44 673 c 128,-1,19
 48 654 48 654 56 628 c 0,20,21
 60 614 60 614 63 605 c 0,22,23
 82 553 82 553 128 508 c 0,24,25
 148 489 148 489 174.5 471.5 c 128,-1,26
 201 454 201 454 226 443 c 0,27,28
 263 427 263 427 310 421 c 1,29,-1
 310 0 l 1,30,-1
 250 -180 l 1,31,-1
 430 -180 l 1,0,-1
610 375 m 1,32,-1
 70 375 l 1,33,-1
 70 420 l 1,34,-1
 55 420 l 1,35,-1
 55 300 l 1,36,-1
 70 300 l 1,37,-1
 70 345 l 1,38,-1
 610 345 l 1,39,-1
 610 300 l 1,40,-1
 625 300 l 1,41,-1
 625 420 l 1,42,-1
 610 420 l 1,43,-1
 610 375 l 1,32,-1
490 135 m 1,44,-1
 205 135 l 1,45,-1
 205 180 l 1,46,-1
 190 180 l 1,47,-1
 190 60 l 1,48,-1
 205 60 l 1,49,-1
 205 105 l 1,50,-1
 490 105 l 1,51,-1
 490 60 l 1,52,-1
 505 60 l 1,53,-1
 505 180 l 1,54,-1
 490 180 l 1,55,-1
 490 135 l 1,44,-1
612 720 m 1,56,57
 612 695 612 695 608.5 676 c 128,-1,58
 605 657 605 657 598 634 c 0,59,60
 593 620 593 620 592 615 c 0,61,62
 577 569 577 569 532 527 c 0,63,64
 515 510 515 510 491 494 c 128,-1,65
 467 478 467 478 444 468 c 0,66,67
 395 446 395 446 340 446 c 0,68,69
 286 446 286 446 236 468 c 0,70,71
 214 477 214 477 189.5 493.5 c 128,-1,72
 165 510 165 510 148 527 c 0,73,74
 104 569 104 569 88 615 c 0,75,76
 86 624 86 624 81 639 c 0,77,78
 75 662 75 662 71.5 679 c 128,-1,79
 68 696 68 696 68 720 c 1,80,-1
 612 720 l 1,56,57
EndSplineSet
Validated: 517
EndChar

StartChar: C (100)
Encoding: 67 67 46
Width: 1016
GlyphClass: 1
Flags: W
LayerCount: 2
Fore
SplineSet
574 517 m 1,0,1
 641 577 641 577 706.5 621.5 c 128,-1,2
 772 666 772 666 864 722 c 0,3,4
 943 770 943 770 976 793 c 1,5,-1
 848 920 l 1,6,7
 825 887 825 887 779 810 c 0,8,9
 725 720 725 720 679 652 c 128,-1,10
 633 584 633 584 574 517 c 1,0,1
442 517 m 1,11,12
 383 584 383 584 338 651 c 128,-1,13
 293 718 293 718 238 810 c 0,14,15
 191 887 191 887 168 920 c 1,16,-1
 40 793 l 1,17,18
 73 770 73 770 152 722 c 0,19,20
 241 668 241 668 308 622.5 c 128,-1,21
 375 577 375 577 442 517 c 1,11,12
508 402 m 1,22,23
 513 314 513 314 529 232.5 c 128,-1,24
 545 151 545 151 569 52 c 0,25,26
 592 -40 592 -40 598 -77 c 1,27,-1
 418 -77 l 1,28,29
 424 -40 424 -40 447 52 c 0,30,31
 473 158 473 158 488 234.5 c 128,-1,32
 503 311 503 311 508 402 c 1,22,23
808 477 m 256,33,34
 808 505 808 505 804 524 c 128,-1,35
 800 543 800 543 792 569 c 0,36,37
 788 583 788 583 785 592 c 0,38,39
 766 644 766 644 720 689 c 0,40,41
 700 709 700 709 674 726 c 128,-1,42
 648 743 648 743 622 754 c 0,43,44
 570 777 570 777 508 777 c 256,45,46
 446 777 446 777 394 754 c 0,47,48
 368 743 368 743 342 726 c 128,-1,49
 316 709 316 709 296 689 c 0,50,51
 250 644 250 644 231 592 c 0,52,53
 228 583 228 583 224 569 c 0,54,55
 216 543 216 543 212 524 c 128,-1,56
 208 505 208 505 208 477 c 256,57,58
 208 449 208 449 212 430 c 128,-1,59
 216 411 216 411 224 385 c 0,60,61
 228 371 228 371 231 362 c 0,62,63
 250 310 250 310 296 265 c 0,64,65
 316 246 316 246 342.5 228.5 c 128,-1,66
 369 211 369 211 394 200 c 0,67,68
 446 177 446 177 508 177 c 256,69,70
 570 177 570 177 622 200 c 0,71,72
 647 211 647 211 674 228.5 c 128,-1,73
 701 246 701 246 720 265 c 0,74,75
 766 310 766 310 785 362 c 0,76,77
 788 371 788 371 792 385 c 0,78,79
 800 411 800 411 804 430 c 128,-1,80
 808 449 808 449 808 477 c 256,33,34
236 477 m 256,81,82
 236 501 236 501 239.5 518 c 128,-1,83
 243 535 243 535 249 558 c 0,84,85
 254 573 254 573 256 582 c 0,86,87
 272 629 272 629 316 670 c 0,88,89
 334 688 334 688 357.5 703.5 c 128,-1,90
 381 719 381 719 404 729 c 0,91,92
 454 751 454 751 508 751 c 0,93,94
 563 751 563 751 612 729 c 0,95,96
 636 719 636 719 659 703.5 c 128,-1,97
 682 688 682 688 700 670 c 0,98,99
 745 629 745 629 760 582 c 0,100,101
 761 577 761 577 766 563 c 0,102,103
 773 538 773 538 776.5 520.5 c 128,-1,104
 780 503 780 503 780 477 c 0,105,106
 780 452 780 452 776.5 433 c 128,-1,107
 773 414 773 414 766 391 c 0,108,109
 761 377 761 377 760 372 c 0,110,111
 745 326 745 326 700 284 c 0,112,113
 683 267 683 267 659 251 c 128,-1,114
 635 235 635 235 612 225 c 0,115,116
 563 203 563 203 508 203 c 0,117,118
 454 203 454 203 404 225 c 0,119,120
 382 234 382 234 357.5 250.5 c 128,-1,121
 333 267 333 267 316 284 c 0,122,123
 272 326 272 326 256 372 c 0,124,125
 254 381 254 381 249 396 c 0,126,127
 243 419 243 419 239.5 436 c 128,-1,128
 236 453 236 453 236 477 c 256,81,82
584 477 m 256,129,130
 584 487 584 487 581 499 c 0,131,132
 579 505 579 505 579 506 c 0,133,134
 573 519 573 519 562 530 c 0,135,136
 550 540 550 540 537 546 c 256,137,138
 524 552 524 552 508 552 c 0,139,140
 493 552 493 552 479 546 c 0,141,142
 466 540 466 540 454 530 c 0,143,144
 442 518 442 518 438 506 c 0,145,146
 437 504 437 504 436 501 c 0,147,148
 432 489 432 489 432 477 c 0,149,150
 432 466 432 466 436 453 c 2,151,-1
 438 448 l 2,152,153
 442 436 442 436 454 424 c 0,154,155
 466 414 466 414 479 408 c 0,156,157
 493 402 493 402 509 402 c 0,158,159
 524 402 524 402 537 408 c 256,160,161
 550 414 550 414 562 424 c 0,162,163
 573 435 573 435 579 448 c 0,164,165
 579 449 579 449 581 455 c 0,166,167
 584 467 584 467 584 477 c 256,129,130
EndSplineSet
Validated: 517
EndChar

StartChar: G (142)
Encoding: 71 71 47
Width: 680
GlyphClass: 1
Flags: W
LayerCount: 2
Fore
SplineSet
519 95 m 1,0,-1
 494 173 l 1,1,2
 531 185 531 185 552 194 c 0,3,4
 584 209 584 209 601 225 c 1,5,6
 597 212 597 212 592 195 c 0,7,8
 577 149 577 149 532 107 c 0,9,10
 524 99 524 99 519 95 c 1,0,-1
528 67 m 1,11,12
 532 70 532 70 538 76 c 0,13,14
 548 84 548 84 552 88 c 0,15,16
 598 133 598 133 617 185 c 0,17,18
 620 194 620 194 624 208 c 0,19,20
 632 234 632 234 636 253 c 128,-1,21
 640 272 640 272 640 300 c 256,22,23
 640 328 640 328 636 347 c 128,-1,24
 632 366 632 366 624 392 c 0,25,26
 620 406 620 406 617 415 c 0,27,28
 598 467 598 467 552 512 c 0,29,30
 532 532 532 532 506 549 c 128,-1,31
 480 566 480 566 454 577 c 0,32,33
 402 600 402 600 340 600 c 256,34,35
 278 600 278 600 226 577 c 0,36,37
 200 566 200 566 174 549 c 128,-1,38
 148 532 148 532 128 512 c 0,39,40
 82 467 82 467 63 415 c 0,41,42
 60 406 60 406 56 392 c 0,43,44
 48 366 48 366 44 347 c 128,-1,45
 40 328 40 328 40 300 c 256,46,47
 40 272 40 272 44 253 c 128,-1,48
 48 234 48 234 56 208 c 0,49,50
 60 194 60 194 63 185 c 0,51,52
 82 133 82 133 128 88 c 0,53,54
 144 74 144 74 153 67 c 1,55,-1
 116 -63 l 1,56,-1
 141 -75 l 1,57,-1
 183 46 l 1,58,59
 204 32 204 32 226 23 c 0,60,61
 268 4 268 4 322 1 c 1,62,-1
 324 -151 l 1,63,-1
 357 -151 l 1,64,-1
 358 1 l 1,65,66
 412 4 412 4 454 23 c 0,67,68
 478 33 478 33 498 48 c 1,69,-1
 537 -71 l 1,70,-1
 567 -63 l 1,71,-1
 528 67 l 1,11,12
489 72 m 1,72,73
 459 54 459 54 444 48 c 0,74,75
 405 30 405 30 358 27 c 1,76,-1
 358 151 l 1,77,78
 408 153 408 153 454 162 c 0,79,80
 455 162 455 162 457 163 c 0,81,82
 459 163 459 163 459 163 c 1,83,-1
 489 72 l 1,72,73
322 151 m 1,84,-1
 322 27 l 1,85,86
 276 30 276 30 236 48 c 0,87,88
 223 53 223 53 198 68 c 0,89,90
 194 71 194 71 192 72 c 2,91,-1
 221 163 l 1,92,93
 270 153 270 153 322 151 c 1,84,-1
162 94 m 1,94,95
 157 98 157 98 148 107 c 0,96,97
 104 149 104 149 88 195 c 0,98,99
 88 197 88 197 85 207 c 0,100,101
 82 221 82 221 80 225 c 1,102,103
 99 208 99 208 128 194 c 0,104,105
 144 187 144 187 181 174 c 2,106,-1
 188 172 l 1,107,-1
 162 94 l 1,94,95
601 374 m 1,108,109
 585 389 585 389 552 406 c 0,110,111
 531 416 531 416 505 424.5 c 128,-1,112
 479 433 479 433 454 438 c 0,113,114
 403 450 403 450 340 450 c 256,115,116
 277 450 277 450 226 438 c 0,117,118
 201 433 201 433 175 424.5 c 128,-1,119
 149 416 149 416 128 406 c 0,120,121
 96 391 96 391 79 375 c 1,122,123
 81 382 81 382 82 385 c 0,124,125
 86 397 86 397 88 405 c 0,126,127
 104 452 104 452 148 493 c 0,128,129
 165 511 165 511 189 527 c 128,-1,130
 213 543 213 543 236 552 c 0,131,132
 286 574 286 574 340 574 c 0,133,134
 395 574 395 574 444 552 c 0,135,136
 468 543 468 543 491 527.5 c 128,-1,137
 514 512 514 512 532 493 c 0,138,139
 577 452 577 452 592 405 c 0,140,141
 595 394 595 394 601 374 c 1,108,109
67 300 m 0,142,143
 67 310 67 310 70.5 317.5 c 128,-1,144
 74 325 74 325 81 334 c 0,145,146
 86 341 86 341 88 345 c 0,147,148
 104 366 104 366 148 384 c 0,149,150
 165 392 165 392 189 399 c 128,-1,151
 213 406 213 406 236 410 c 0,152,153
 289 420 289 420 340 420 c 0,154,155
 392 420 392 420 444 410 c 0,156,157
 468 406 468 406 491 399 c 128,-1,158
 514 392 514 392 532 384 c 0,159,160
 576 366 576 366 592 345 c 0,161,162
 595 340 595 340 597 337 c 0,163,164
 605 327 605 327 608.5 319 c 128,-1,165
 612 311 612 311 612 300 c 256,166,167
 612 289 612 289 608.5 281.5 c 128,-1,168
 605 274 605 274 598 264 c 0,169,170
 594 258 594 258 592 255 c 0,171,172
 578 236 578 236 532 216 c 0,173,174
 516 208 516 208 493 201.5 c 128,-1,175
 470 195 470 195 444 190 c 0,176,177
 388 181 388 181 340 181 c 0,178,179
 294 181 294 181 236 190 c 0,180,181
 210 195 210 195 187 201.5 c 128,-1,182
 164 208 164 208 148 216 c 0,183,184
 102 236 102 236 88 255 c 0,185,186
 86 259 86 259 80 267 c 0,187,188
 67 286 67 286 67 300 c 0,142,143
EndSplineSet
Validated: 521
EndChar

StartChar: lft brkt (132)
Encoding: 91 91 48
Width: 808
GlyphClass: 1
Flags: W
LayerCount: 2
Fore
SplineSet
297 414 m 0,0,1
 294 430 294 430 281 430 c 0,2,3
 270 430 270 430 267 416 c 0,4,5
 267 399 267 399 268 373 c 0,6,7
 269 348 269 348 269 343 c 0,8,9
 269 312 269 312 265.5 283.5 c 128,-1,10
 262 255 262 255 254 217 c 1,11,12
 292 217 292 217 317.5 216.5 c 128,-1,13
 343 216 343 216 362.5 214.5 c 128,-1,14
 382 213 382 213 401.5 210.5 c 128,-1,15
 421 208 421 208 453 203 c 1,16,17
 467 208 467 208 467 216 c 256,18,19
 467 224 467 224 455 233 c 1,20,21
 376 245 376 245 323 245 c 0,22,23
 317 245 317 245 305 245 c 0,24,25
 293 244 293 244 286 244 c 1,26,27
 294 270 294 270 297.5 293.5 c 128,-1,28
 301 317 301 317 301 342 c 0,29,30
 301 366 301 366 297 414 c 0,0,1
448 545 m 0,31,32
 445 562 445 562 432 562 c 0,33,34
 421 562 421 562 417 548 c 0,35,36
 417 534 417 534 418 504 c 0,37,38
 419 485 419 485 419 473 c 0,39,40
 419 443 419 443 416 415 c 128,-1,41
 413 387 413 387 405 348 c 1,42,43
 407 348 407 348 427 348 c 0,44,45
 440 349 440 349 445 349 c 0,46,47
 483 349 483 349 510.5 346.5 c 128,-1,48
 538 344 538 344 588 337 c 0,49,50
 595 336 595 336 604 335 c 1,51,52
 617 340 617 340 617 348 c 0,53,54
 617 355 617 355 606 365 c 1,55,-1
 597 366 l 2,56,57
 517 377 517 377 471 377 c 0,58,59
 463 377 463 377 454 377 c 0,60,61
 442 376 442 376 436 376 c 1,62,63
 444 403 444 403 447.5 427 c 128,-1,64
 451 451 451 451 451 478 c 0,65,66
 451 502 451 502 448 545 c 0,31,32
598 677 m 0,67,68
 595 694 595 694 582 694 c 0,69,70
 571 694 571 694 568 680 c 0,71,72
 568 663 568 663 569 637 c 256,73,74
 570 611 570 611 570 606 c 0,75,76
 570 575 570 575 566.5 546.5 c 128,-1,77
 563 518 563 518 555 480 c 1,78,79
 556 480 556 480 578 480 c 0,80,81
 590 481 590 481 595 481 c 0,82,83
 634 481 634 481 660 478.5 c 128,-1,84
 686 476 686 476 738 469 c 2,85,-1
 754 467 l 1,86,87
 768 472 768 472 768 479 c 0,88,89
 768 487 768 487 756 496 c 1,90,91
 673 509 673 509 617 509 c 0,92,93
 610 509 610 509 602 508 c 0,94,95
 592 508 592 508 587 508 c 1,96,97
 602 555 602 555 602 606 c 0,98,99
 602 630 602 630 598 677 c 0,67,68
61 27 m 1,100,-1
 738 620 l 1,101,102
 741 629 741 629 741 635 c 0,103,104
 741 645 741 645 730 645 c 0,105,106
 726 645 726 645 718 643 c 2,107,-1
 41 50 l 2,108,109
 41 48 41 48 40 44 c 0,110,111
 40 41 40 41 40 40 c 0,112,113
 40 27 40 27 61 27 c 1,100,-1
EndSplineSet
Validated: 517
EndChar

StartChar: S (143)
Encoding: 83 83 49
Width: 1039
GlyphClass: 1
Flags: W
LayerCount: 2
Fore
SplineSet
359 288 m 1,0,1
 379 312 379 312 389 320 c 128,-1,2
 399 328 399 328 413 328 c 1,3,4
 419 310 419 310 429 274 c 0,5,6
 445 212 445 212 461.5 182 c 128,-1,7
 478 152 478 152 511 152 c 0,8,9
 537 152 537 152 552.5 179.5 c 128,-1,10
 568 207 568 207 582 253 c 0,11,12
 589 276 589 276 594 287 c 128,-1,13
 599 298 599 298 604 298 c 0,14,15
 629 298 629 298 641.5 277.5 c 128,-1,16
 654 257 654 257 666 215 c 0,17,18
 679 170 679 170 693.5 146.5 c 128,-1,19
 708 123 708 123 739 123 c 1,20,21
 763 140 763 140 772 169 c 128,-1,22
 781 198 781 198 786 242 c 0,23,24
 789 271 789 271 793 284.5 c 128,-1,25
 797 298 797 298 808 298 c 0,26,27
 830 298 830 298 843.5 285.5 c 128,-1,28
 857 273 857 273 865 251 c 128,-1,29
 873 229 873 229 877 203.5 c 128,-1,30
 881 178 881 178 885 138 c 1,31,32
 921 142 921 142 931 151.5 c 128,-1,33
 941 161 941 161 941 184 c 0,34,35
 940 189 940 189 939 202 c 0,36,37
 936 236 936 236 931.5 265 c 128,-1,38
 927 294 927 294 915.5 326 c 128,-1,39
 904 358 904 358 883 379 c 128,-1,40
 862 400 862 400 831 400 c 0,41,42
 816 400 816 400 806.5 378.5 c 128,-1,43
 797 357 797 357 786 314 c 0,44,45
 774 270 774 270 764.5 248 c 128,-1,46
 755 226 755 226 739 226 c 0,47,48
 722 226 722 226 712 250.5 c 128,-1,49
 702 275 702 275 690 324 c 0,50,51
 680 370 680 370 671.5 392 c 128,-1,52
 663 414 663 414 648 414 c 0,53,54
 634 414 634 414 623.5 403.5 c 128,-1,55
 613 393 613 393 604 374 c 0,56,57
 593 351 593 351 580 297 c 0,58,59
 572 268 572 268 567 254 c 128,-1,60
 562 240 562 240 556 240 c 0,61,62
 526 240 526 240 512 260.5 c 128,-1,63
 498 281 498 281 485 322 c 0,64,65
 472 361 472 361 459 380.5 c 128,-1,66
 446 400 446 400 419 400 c 0,67,68
 418 400 418 400 415 400 c 0,69,70
 412 401 412 401 412 401 c 1,71,72
 380 401 380 401 353 367 c 1,73,74
 340 415 340 415 300 446.5 c 128,-1,75
 260 478 260 478 223 478 c 0,76,77
 180 478 180 478 154 471 c 128,-1,78
 128 464 128 464 102 448 c 1,79,80
 82 425 82 425 66 393 c 128,-1,81
 50 361 50 361 42 328 c 0,82,83
 40 311 40 311 40 289 c 0,84,85
 40 256 40 256 44.5 223.5 c 128,-1,86
 49 191 49 191 56 177 c 0,87,88
 63 161 63 161 73.5 155 c 128,-1,89
 84 149 84 149 104 149 c 0,90,91
 115 149 115 149 128.5 158.5 c 128,-1,92
 142 168 142 168 153.5 184 c 128,-1,93
 165 200 165 200 173.5 218.5 c 128,-1,94
 182 237 182 237 184 255 c 0,95,96
 183 268 183 268 182 286 c 0,97,98
 182 312 182 312 176 326 c 128,-1,99
 170 340 170 340 146 360 c 1,100,101
 178 372 178 372 204 372 c 0,102,103
 254 372 254 372 279 329.5 c 128,-1,104
 304 287 304 287 304 210 c 0,105,106
 301 172 301 172 288.5 141.5 c 128,-1,107
 276 111 276 111 256.5 87.5 c 128,-1,108
 237 64 237 64 215.5 46 c 128,-1,109
 194 28 194 28 161 3 c 0,110,111
 117 -31 117 -31 98 -49 c 0,112,113
 78 -64 78 -64 67.5 -78 c 128,-1,114
 57 -92 57 -92 45 -113 c 2,115,-1
 41 -121 l 1,116,117
 158 -71 158 -71 269.5 -50 c 128,-1,118
 381 -29 381 -29 488 -29 c 0,119,120
 565 -29 565 -29 632 -37 c 128,-1,121
 699 -45 699 -45 781 -59 c 2,122,123
 781 -59 781 -59 793 -61 c 1,124,125
 835 -128 835 -128 879 -172.5 c 128,-1,126
 923 -217 923 -217 953 -220 c 1,127,128
 953 -198 953 -198 959 -167.5 c 128,-1,129
 965 -137 965 -137 976 -86 c 0,130,131
 988 -35 988 -35 993.5 -4.5 c 128,-1,132
 999 26 999 26 999 48 c 0,133,134
 999 82 999 82 981 83 c 1,135,136
 908 60 908 60 863 48.5 c 128,-1,137
 818 37 818 37 756 27 c 1,138,-1
 717 26 l 2,139,140
 643 25 643 25 578 22.5 c 128,-1,141
 513 20 513 20 445 14.5 c 128,-1,142
 377 9 377 9 313.5 -2 c 128,-1,143
 250 -13 250 -13 208 -31 c 1,144,145
 253 8 253 8 283 49.5 c 128,-1,146
 313 91 313 91 329.5 132 c 128,-1,147
 346 173 346 173 352.5 211 c 128,-1,148
 359 249 359 249 359 288 c 1,0,1
EndSplineSet
Validated: 521
EndChar

StartChar: J (144)
Encoding: 74 74 50
Width: 1031
GlyphClass: 1
Flags: W
LayerCount: 2
Fore
SplineSet
435 186 m 1,0,1
 438 177 438 177 446 174 c 2,2,-1
 448 173 l 1,3,4
 568 196 568 196 651 196 c 0,5,6
 716 196 716 196 782 183 c 1,7,8
 782 183 782 183 787 194 c 0,9,10
 797 217 797 217 803.5 235.5 c 128,-1,11
 810 254 810 254 811 270 c 1,12,13
 758 307 758 307 726.5 332 c 128,-1,14
 695 357 695 357 673 378.5 c 128,-1,15
 651 400 651 400 630.5 424.5 c 128,-1,16
 610 449 610 449 568 503 c 0,17,18
 566 505 566 505 563 509 c 1,19,20
 552 452 552 452 542.5 415 c 128,-1,21
 533 378 533 378 524.5 356 c 128,-1,22
 516 334 516 334 508 321.5 c 128,-1,23
 500 309 500 309 488 292 c 0,24,25
 472 271 472 271 460.5 249.5 c 128,-1,26
 449 228 449 228 435 186 c 1,0,1
465 222 m 1,27,28
 477 257 477 257 488.5 277 c 128,-1,29
 500 297 500 297 517 318 c 0,30,31
 536 343 536 343 545.5 365 c 128,-1,32
 555 387 555 387 560 434 c 1,33,34
 585 399 585 399 606 372.5 c 128,-1,35
 627 346 627 346 649 324.5 c 128,-1,36
 671 303 671 303 698.5 282 c 128,-1,37
 726 261 726 261 764 237 c 1,38,39
 693 248 693 248 639 248 c 0,40,41
 596 248 596 248 556 242 c 128,-1,42
 516 236 516 236 465 222 c 1,27,28
991 -120 m 1,43,44
 986 -99 986 -99 984 -68 c 128,-1,45
 982 -37 982 -37 981 15 c 0,46,47
 980 53 980 53 978.5 81.5 c 128,-1,48
 977 110 977 110 974 131.5 c 128,-1,49
 971 153 971 153 964.5 167 c 128,-1,50
 958 181 958 181 948 181 c 0,51,52
 947 181 947 181 946 180 c 0,53,54
 944 180 944 180 944 180 c 1,55,-1
 921 166 l 2,56,57
 864 131 864 131 830 109 c 128,-1,58
 796 87 796 87 756 58 c 1,59,-1
 716 57 l 2,60,61
 643 56 643 56 578 53.5 c 128,-1,62
 513 51 513 51 445 45.5 c 128,-1,63
 377 40 377 40 313.5 29 c 128,-1,64
 250 18 250 18 208 0 c 1,65,66
 254 39 254 39 284 81.5 c 128,-1,67
 314 124 314 124 330.5 165.5 c 128,-1,68
 347 207 347 207 353 245.5 c 128,-1,69
 359 284 359 284 359 322 c 0,70,71
 359 327 359 327 359 342 c 0,72,73
 358 354 358 354 358 360 c 0,74,75
 358 392 358 392 345 420 c 128,-1,76
 332 448 332 448 311 468 c 128,-1,77
 290 488 290 488 266.5 499 c 128,-1,78
 243 510 243 510 223 510 c 0,79,80
 180 510 180 510 154.5 503 c 128,-1,81
 129 496 129 496 103 480 c 1,82,83
 83 457 83 457 67 425 c 128,-1,84
 51 393 51 393 43 360 c 0,85,86
 40 342 40 342 40 317 c 0,87,88
 40 285 40 285 44.5 254 c 128,-1,89
 49 223 49 223 56 209 c 0,90,91
 63 193 63 193 73.5 186.5 c 128,-1,92
 84 180 84 180 104 180 c 0,93,94
 115 180 115 180 128.5 190 c 128,-1,95
 142 200 142 200 154 216 c 128,-1,96
 166 232 166 232 174 251 c 128,-1,97
 182 270 182 270 184 287 c 0,98,99
 183 300 183 300 182 318 c 0,100,101
 182 344 182 344 176 358 c 128,-1,102
 170 372 170 372 146 392 c 1,103,104
 178 404 178 404 204 404 c 0,105,106
 254 404 254 404 279 361.5 c 128,-1,107
 304 319 304 319 304 242 c 0,108,109
 301 204 301 204 288.5 173.5 c 128,-1,110
 276 143 276 143 256.5 119 c 128,-1,111
 237 95 237 95 216.5 77.5 c 128,-1,112
 196 60 196 60 161 33 c 0,113,114
 117 0 117 0 98 -18 c 0,115,116
 79 -33 79 -33 68.5 -46.5 c 128,-1,117
 58 -60 58 -60 47 -80 c 0,118,119
 45 -83 45 -83 41 -90 c 1,120,121
 158 -40 158 -40 269.5 -19 c 128,-1,122
 381 2 381 2 488 2 c 0,123,124
 566 2 566 2 632 -6 c 128,-1,125
 698 -14 698 -14 782 -28 c 2,126,-1
 794 -30 l 1,127,128
 810 -39 810 -39 824 -48 c 0,129,130
 885 -84 885 -84 922 -102.5 c 128,-1,131
 959 -121 959 -121 984 -121 c 1,132,133
 984 -121 984 -121 988 -120 c 0,134,135
 990 -120 990 -120 991 -120 c 1,43,44
EndSplineSet
Validated: 521
EndChar

StartChar: Comma
Encoding: 44 44 51
Width: 226
GlyphClass: 1
Flags: W
LayerCount: 2
Fore
SplineSet
41 -167 m 1,0,-1
 41 -145 l 1,1,2
 91 -128 91 -128 118.5 -93.5 c 128,-1,3
 146 -59 146 -59 146 -20 c 0,4,5
 146 -10 146 -10 142 -4 c 0,6,7
 138 0 138 0 135 0 c 0,8,9
 130 0 130 0 112 -9 c 0,10,11
 103 -14 103 -14 93 -14 c 0,12,13
 69 -14 69 -14 55 0.5 c 128,-1,14
 41 15 41 15 41 40 c 0,15,16
 41 63 41 63 59 80.5 c 128,-1,17
 77 98 77 98 104 98 c 0,18,19
 136 98 136 98 161 70 c 128,-1,20
 186 42 186 42 186 -5 c 0,21,22
 186 -55 186 -55 151 -98.5 c 128,-1,23
 116 -142 116 -142 41 -167 c 1,0,-1
EndSplineSet
Validated: 1
EndChar

StartChar: Period
Encoding: 46 46 52
Width: 189
GlyphClass: 1
Flags: W
LayerCount: 2
Fore
SplineSet
95 115 m 0,0,1
 118 115 118 115 133.5 99 c 128,-1,2
 149 83 149 83 149 61 c 0,3,4
 149 38 149 38 133 22 c 128,-1,5
 117 6 117 6 95 6 c 256,6,7
 73 6 73 6 57 22 c 128,-1,8
 41 38 41 38 41 61 c 0,9,10
 41 83 41 83 57 99 c 128,-1,11
 73 115 73 115 95 115 c 0,0,1
EndSplineSet
Validated: 1
EndChar

StartChar: Equal
Encoding: 61 61 53
Width: 606
GlyphClass: 1
Flags: W
LayerCount: 2
Fore
SplineSet
40 339 m 1,0,-1
 567 339 l 1,1,-1
 567 281 l 1,2,-1
 40 281 l 1,3,-1
 40 339 l 1,0,-1
40 180 m 1,4,-1
 567 180 l 1,5,-1
 567 122 l 1,6,-1
 40 122 l 1,7,-1
 40 180 l 1,4,-1
EndSplineSet
Validated: 1
EndChar

StartChar: Semi
Encoding: 59 59 54
Width: 225
GlyphClass: 1
Flags: W
LayerCount: 2
Fore
SplineSet
109 461 m 0,0,1
 131 461 131 461 147 445.5 c 128,-1,2
 163 430 163 430 163 408 c 0,3,4
 163 385 163 385 147 369.5 c 128,-1,5
 131 354 131 354 109 354 c 0,6,7
 86 354 86 354 70 369.5 c 128,-1,8
 54 385 54 385 54 408 c 0,9,10
 54 430 54 430 70 445.5 c 128,-1,11
 86 461 86 461 109 461 c 0,0,1
40 -167 m 1,12,-1
 40 -145 l 1,13,14
 91 -128 91 -128 118.5 -93.5 c 128,-1,15
 146 -59 146 -59 146 -20 c 0,16,17
 146 -10 146 -10 141 -4 c 0,18,19
 138 0 138 0 135 0 c 0,20,21
 129 0 129 0 111 -9 c 0,22,23
 102 -14 102 -14 93 -14 c 0,24,25
 69 -14 69 -14 54.5 0.5 c 128,-1,26
 40 15 40 15 40 40 c 0,27,28
 40 63 40 63 58.5 80.5 c 128,-1,29
 77 98 77 98 103 98 c 0,30,31
 136 98 136 98 161 70 c 128,-1,32
 186 42 186 42 186 -5 c 0,33,34
 186 -55 186 -55 151 -98.5 c 128,-1,35
 116 -142 116 -142 40 -167 c 1,12,-1
EndSplineSet
Validated: 1
EndChar

StartChar: Colon
Encoding: 58 58 55
Width: 190
GlyphClass: 1
Flags: W
LayerCount: 2
Fore
SplineSet
96 461 m 0,0,1
 119 461 119 461 134.5 445 c 128,-1,2
 150 429 150 429 150 407 c 0,3,4
 150 384 150 384 134.5 368.5 c 128,-1,5
 119 353 119 353 96 353 c 0,6,7
 74 353 74 353 58 368.5 c 128,-1,8
 42 384 42 384 42 407 c 0,9,10
 42 429 42 429 58 445 c 128,-1,11
 74 461 74 461 96 461 c 0,0,1
95 95 m 0,12,13
 118 95 118 95 134 79 c 128,-1,14
 150 63 150 63 150 41 c 0,15,16
 150 18 150 18 134 2 c 128,-1,17
 118 -14 118 -14 95 -14 c 0,18,19
 73 -14 73 -14 57 2 c 128,-1,20
 41 18 41 18 41 41 c 0,21,22
 41 63 41 63 57 79 c 128,-1,23
 73 95 73 95 95 95 c 0,12,13
EndSplineSet
Validated: 1
EndChar

StartChar: Minus
Encoding: 45 45 56
Width: 332
GlyphClass: 1
Flags: W
LayerCount: 2
Fore
SplineSet
41 261 m 1,0,-1
 293 261 l 1,1,-1
 293 188 l 1,2,-1
 41 188 l 1,3,-1
 41 261 l 1,0,-1
EndSplineSet
Validated: 1
EndChar

StartChar: Backslash
Encoding: 92 92 57
Width: 358
GlyphClass: 1
Flags: W
LayerCount: 2
Fore
SplineSet
80 694 m 1,0,-1
 319 -14 l 1,1,-1
 280 -14 l 1,2,-1
 40 694 l 1,3,-1
 80 694 l 1,0,-1
EndSplineSet
Validated: 1
EndChar

StartChar: Space
Encoding: 32 32 58
Width: 536
GlyphClass: 1
Flags: W
LayerCount: 2
Fore
SplineSet
527 -216 m 1,0,-1
 10 -216 l 1,1,-1
 10 -175 l 1,2,-1
 527 -175 l 1,3,-1
 527 -216 l 1,0,-1
214 -179 m 2,4,-1
 214 123 l 1,5,-1
 318 123 l 1,6,-1
 318 -181 l 1,7,8
 319 -179 319 -179 216 -180 c 1,9,-1
 216 -180 l 1,10,-1
 216 -180 l 1,11,-1
 216 -180 l 1,12,13
 216 -180 216 -180 214 -179 c 2,4,-1
EndSplineSet
Validated: 37
EndChar

StartChar: parenl
Encoding: 40 40 59
Width: 333
GlyphClass: 1
Flags: W
LayerCount: 2
Fore
SplineSet
311 -196 m 1,0,-1
 311 -214 l 1,1,2
 237 -177 237 -177 188 -127 c 0,3,4
 117 -56 117 -56 79 40 c 128,-1,5
 41 136 41 136 41 240 c 0,6,7
 41 391 41 391 115.5 516 c 128,-1,8
 190 641 190 641 311 694 c 1,9,-1
 311 674 l 1,10,11
 250 641 250 641 211.5 583 c 128,-1,12
 173 525 173 525 154 437 c 128,-1,13
 135 349 135 349 135 252 c 0,14,15
 135 148 135 148 151 62 c 0,16,17
 164 -5 164 -5 182 -45.5 c 128,-1,18
 200 -86 200 -86 230.5 -124 c 128,-1,19
 261 -162 261 -162 311 -196 c 1,0,-1
EndSplineSet
Validated: 1
EndChar

StartChar: parenr
Encoding: 41 41 60
Width: 333
GlyphClass: 1
Flags: W
LayerCount: 2
Fore
SplineSet
22 674 m 1,0,-1
 22 694 l 1,1,2
 97 658 97 658 146 608 c 0,3,4
 216 537 216 537 254 441 c 128,-1,5
 292 345 292 345 292 241 c 0,6,7
 292 89 292 89 217.5 -35.5 c 128,-1,8
 143 -160 143 -160 22 -214 c 1,9,-1
 22 -196 l 1,10,11
 83 -162 83 -162 121.5 -104.5 c 128,-1,12
 160 -47 160 -47 179 41.5 c 128,-1,13
 198 130 198 130 198 226 c 0,14,15
 198 330 198 330 182 416 c 0,16,17
 169 483 169 483 151 523.5 c 128,-1,18
 133 564 133 564 102.5 602 c 128,-1,19
 72 640 72 640 22 674 c 1,0,-1
EndSplineSet
Validated: 1
EndChar

StartChar: powerto
Encoding: 94 94 61
Width: 469
GlyphClass: 1
Flags: W
LayerCount: 2
Fore
SplineSet
243 676 m 1,0,-1
 451 326 l 1,1,-1
 406 326 l 1,2,-1
 235 612 l 1,3,-1
 64 326 l 1,4,-1
 18 326 l 1,5,-1
 229 676 l 1,6,-1
 243 676 l 1,0,-1
EndSplineSet
Validated: 1
EndChar

StartChar: derivative
Encoding: 63 63 62
Width: 500
GlyphClass: 1
Flags: W
LayerCount: 2
Fore
SplineSet
541 694 m 1,0,-1
 373 118 l 2,1,2
 359 71 359 71 359 57 c 0,3,4
 359 52 359 52 363.5 47.5 c 128,-1,5
 368 43 368 43 372 43 c 0,6,7
 378 43 378 43 387 49 c 0,8,9
 404 61 404 61 443 108 c 1,10,-1
 459 98 l 1,11,12
 424 49 424 49 388.5 18.5 c 128,-1,13
 353 -12 353 -12 321 -12 c 0,14,15
 305 -12 305 -12 294 0 c 128,-1,16
 283 12 283 12 283 33 c 0,17,18
 283 61 283 61 298 108 c 2,19,-1
 317 168 l 1,20,21
 246 59 246 59 188 17 c 0,22,23
 148 -12 148 -12 111 -12 c 256,24,25
 74 -12 74 -12 46.5 21 c 128,-1,26
 19 54 19 54 19 111 c 0,27,28
 19 184 19 184 65.5 266.5 c 128,-1,29
 112 349 112 349 188 400 c 0,30,31
 248 442 248 442 298 442 c 0,32,33
 325 442 325 442 344 431 c 128,-1,34
 363 420 363 420 381 396 c 1,35,-1
 429 565 l 2,36,37
 435 583 435 583 438 594 c 0,38,39
 444 614 444 614 444 626 c 0,40,41
 444 637 444 637 437 644 c 0,42,43
 426 652 426 652 410 652 c 0,44,45
 399 652 399 652 373 648 c 1,46,-1
 373 667 l 1,47,-1
 541 694 l 1,0,-1
360 348 m 0,48,49
 360 379 360 379 342 398 c 128,-1,50
 324 417 324 417 296 417 c 0,51,52
 234 417 234 417 167.5 315.5 c 128,-1,53
 101 214 101 214 101 121 c 0,54,55
 101 84 101 84 117 65 c 128,-1,56
 133 46 133 46 156 46 c 0,57,58
 207 46 207 46 283.5 156 c 128,-1,59
 360 266 360 266 360 348 c 0,48,49
EndSplineSet
Validated: 1
EndChar

StartChar: set
Encoding: 33 33 63
Width: 712
GlyphClass: 1
Flags: W
LayerCount: 2
Fore
SplineSet
533 468 m 1,0,-1
 615 662 l 1,1,-1
 664 662 l 1,2,-1
 381 0 l 1,3,-1
 331 0 l 1,4,-1
 47 662 l 1,5,-1
 98 662 l 1,6,-1
 181 468 l 1,7,-1
 533 468 l 1,0,-1
512 420 m 1,8,-1
 202 420 l 1,9,-1
 358 60 l 1,10,-1
 512 420 l 1,8,-1
EndSplineSet
Validated: 1
EndChar

StartChar: number
Encoding: 35 35 64
Width: 500
GlyphClass: 1
Flags: W
LayerCount: 2
Fore
SplineSet
56 -14 m 1,0,-1
 102 208 l 1,1,-1
 18 208 l 1,2,-1
 18 249 l 1,3,-1
 109 249 l 1,4,-1
 143 416 l 1,5,-1
 18 416 l 1,6,-1
 18 455 l 1,7,-1
 152 455 l 1,8,-1
 197 677 l 1,9,-1
 237 677 l 1,10,-1
 193 455 l 1,11,-1
 357 455 l 1,12,-1
 405 677 l 1,13,-1
 445 677 l 1,14,-1
 399 455 l 1,15,-1
 482 455 l 1,16,-1
 482 416 l 1,17,-1
 392 416 l 1,18,-1
 357 249 l 1,19,-1
 482 249 l 1,20,-1
 482 208 l 1,21,-1
 349 208 l 1,22,-1
 304 -14 l 1,23,-1
 264 -14 l 1,24,-1
 309 208 l 1,25,-1
 143 208 l 1,26,-1
 97 -14 l 1,27,-1
 56 -14 l 1,0,-1
150 249 m 1,28,-1
 316 249 l 1,29,-1
 351 416 l 1,30,-1
 185 416 l 1,31,-1
 150 249 l 1,28,-1
EndSplineSet
Validated: 1
EndChar

StartChar: dollar
Encoding: 36 36 65
Width: 500
GlyphClass: 1
Flags: W
LayerCount: 2
Fore
SplineSet
53 163 m 1,0,-1
 74 163 l 1,1,2
 80 96 80 96 116.5 60.5 c 128,-1,3
 153 25 153 25 226 18 c 1,4,-1
 226 303 l 1,5,6
 116 371 116 371 79 423 c 0,7,8
 53 460 53 460 53 514 c 0,9,10
 53 574 53 574 98 619 c 128,-1,11
 143 664 143 664 226 673 c 1,12,-1
 226 718 l 1,13,-1
 257 718 l 1,14,-1
 257 673 l 1,15,16
 297 670 297 670 324 664 c 0,17,18
 338 660 338 660 418 630 c 1,19,-1
 418 484 l 1,20,-1
 399 484 l 1,21,22
 393 562 393 562 359 597.5 c 128,-1,23
 325 633 325 633 257 640 c 1,24,-1
 257 392 l 1,25,26
 380 306 380 306 415 265.5 c 128,-1,27
 450 225 450 225 450 164 c 0,28,29
 450 97 450 97 399 45.5 c 128,-1,30
 348 -6 348 -6 257 -14 c 1,31,-1
 257 -76 l 1,32,-1
 226 -76 l 1,33,-1
 226 -14 l 1,34,35
 180 -12 180 -12 140.5 -3.5 c 128,-1,36
 101 5 101 5 53 25 c 1,37,-1
 53 163 l 1,0,-1
226 413 m 1,38,-1
 226 640 l 1,39,40
 177 634 177 634 153 608.5 c 128,-1,41
 129 583 129 583 129 545 c 0,42,43
 129 510 129 510 150.5 479 c 128,-1,44
 172 448 172 448 226 413 c 1,38,-1
257 18 m 1,45,46
 293 24 293 24 313 36 c 0,47,48
 340 53 340 53 356 80.5 c 128,-1,49
 372 108 372 108 372 140 c 256,50,51
 372 172 372 172 352.5 200.5 c 128,-1,52
 333 229 333 229 257 282 c 1,53,-1
 257 18 l 1,45,46
EndSplineSet
Validated: 1
EndChar

StartChar: perct
Encoding: 37 37 66
Width: 833
GlyphClass: 1
Flags: W
LayerCount: 2
Fore
SplineSet
680 677 m 1,0,-1
 197 -27 l 1,1,-1
 154 -27 l 1,2,-1
 636 677 l 1,3,-1
 680 677 l 1,0,-1
178 677 m 0,4,5
 244 677 244 677 280 622.5 c 128,-1,6
 316 568 316 568 316 497 c 0,7,8
 316 412 316 412 275 365.5 c 128,-1,9
 234 319 234 319 177 319 c 0,10,11
 138 319 138 319 106 340.5 c 128,-1,12
 74 362 74 362 54.5 404 c 128,-1,13
 35 446 35 446 35 497 c 256,14,15
 35 548 35 548 54.5 591.5 c 128,-1,16
 74 635 74 635 108 656 c 128,-1,17
 142 677 142 677 178 677 c 0,4,5
176 650 m 0,18,19
 151 650 151 650 132 620.5 c 128,-1,20
 113 591 113 591 113 498 c 0,21,22
 113 430 113 430 124 394 c 0,23,24
 132 367 132 367 149 353 c 0,25,26
 160 344 160 344 175 344 c 0,27,28
 198 344 198 344 215 369 c 0,29,30
 239 407 239 407 239 495 c 0,31,32
 239 587 239 587 215 625 c 0,33,34
 200 650 200 650 176 650 c 0,18,19
657 329 m 0,35,36
 692 329 692 329 726.5 307 c 128,-1,37
 761 285 761 285 779.5 243 c 128,-1,38
 798 201 798 201 798 150 c 0,39,40
 798 64 798 64 756.5 18.5 c 128,-1,41
 715 -27 715 -27 659 -27 c 0,42,43
 623 -27 623 -27 589.5 -5 c 128,-1,44
 556 17 556 17 537 57.5 c 128,-1,45
 518 98 518 98 518 150 c 256,46,47
 518 202 518 202 537 244.5 c 128,-1,48
 556 287 556 287 589.5 308 c 128,-1,49
 623 329 623 329 657 329 c 0,35,36
658 303 m 256,50,51
 634 303 634 303 617 276 c 0,52,53
 595 242 595 242 595 147 c 0,54,55
 595 60 595 60 618 25 c 0,56,57
 634 0 634 0 658 0 c 0,58,59
 680 0 680 0 698 27 c 0,60,61
 721 62 721 62 721 149 c 0,62,63
 721 241 721 241 698 278 c 0,64,65
 682 303 682 303 658 303 c 256,50,51
EndSplineSet
Validated: 1
EndChar

StartChar: plus
Encoding: 43 43 67
Width: 563
GlyphClass: 1
Flags: W
LayerCount: 2
Fore
SplineSet
261 69 m 1,0,-1
 261 312 l 1,1,-1
 18 312 l 1,2,-1
 18 353 l 1,3,-1
 261 353 l 1,4,-1
 261 595 l 1,5,-1
 300 595 l 1,6,-1
 300 353 l 1,7,-1
 544 353 l 1,8,-1
 544 312 l 1,9,-1
 300 312 l 1,10,-1
 300 69 l 1,11,-1
 261 69 l 1,0,-1
EndSplineSet
Validated: 1
EndChar

StartChar: multip
Encoding: 42 42 68
Width: 350
GlyphClass: 1
Flags: W
LayerCount: 2
Fore
SplineSet
177 453 m 256,0,1
 228 453 228 453 264 417 c 128,-1,2
 300 381 300 381 300 331 c 0,3,4
 300 280 300 280 264 244 c 128,-1,5
 228 208 228 208 177 208 c 256,6,7
 126 208 126 208 90.5 244 c 128,-1,8
 55 280 55 280 55 331 c 0,9,10
 55 381 55 381 90.5 417 c 128,-1,11
 126 453 126 453 177 453 c 256,0,1
EndSplineSet
Validated: 1
EndChar

StartChar: divide
Encoding: 95 95 69
Width: 277
GlyphClass: 1
Flags: W
LayerCount: 2
Fore
SplineSet
280 694 m 1,0,-1
 41 -14 l 1,1,-1
 1 -14 l 1,2,-1
 241 694 l 1,3,-1
 280 694 l 1,0,-1
EndSplineSet
Validated: 1
EndChar

StartChar: X (2)
Encoding: 88 88 70
Width: 656
GlyphClass: 1
Flags: W
LayerCount: 2
Fore
SplineSet
-36 0 m 1,0,-1
 241 373 l 1,1,-1
 -3 716 l 1,2,-1
 110 716 l 1,3,-1
 240 532 l 2,4,5
 280 475 280 475 297 444 c 1,6,7
 321 483 321 483 354 526 c 2,8,-1
 498 716 l 1,9,-1
 601 716 l 1,10,-1
 350 378 l 1,11,-1
 621 0 l 1,12,-1
 503 0 l 1,13,-1
 323 255 l 2,14,15
 308 277 308 277 292 303 c 1,16,17
 268 264 268 264 258 250 c 2,18,-1
 78 0 l 1,19,-1
 -36 0 l 1,0,-1
EndSplineSet
Validated: 513
EndChar

StartChar: V (3)
Encoding: 86 86 71
Width: 700
GlyphClass: 1
Flags: W
LayerCount: 2
Fore
SplineSet
287 0 m 1,0,-1
 9 716 l 1,1,-1
 112 716 l 1,2,-1
 298 196 l 2,3,4
 320 133 320 133 336 79 c 1,5,6
 352 137 352 137 374 196 c 2,7,-1
 567 716 l 1,8,-1
 664 716 l 1,9,-1
 384 0 l 1,10,-1
 287 0 l 1,0,-1
EndSplineSet
Validated: 513
EndChar

StartChar: L (4)
Encoding: 76 76 72
Width: 556
GlyphClass: 1
Flags: W
LayerCount: 2
Fore
SplineSet
73 0 m 1,0,-1
 73 716 l 1,1,-1
 168 716 l 1,2,-1
 168 84 l 1,3,-1
 521 84 l 1,4,-1
 521 0 l 1,5,-1
 73 0 l 1,0,-1
EndSplineSet
Validated: 513
EndChar

StartChar: Z (1)
Encoding: 90 90 73
Width: 610
GlyphClass: 1
Flags: W
LayerCount: 2
Fore
SplineSet
20 0 m 1,0,-1
 20 88 l 1,1,-1
 387 546 l 2,2,3
 426 595 426 595 461 631 c 1,4,-1
 62 631 l 1,5,-1
 62 716 l 1,6,-1
 574 716 l 1,7,-1
 574 631 l 1,8,-1
 172 135 l 1,9,-1
 129 84 l 1,10,-1
 586 84 l 1,11,-1
 586 0 l 1,12,-1
 20 0 l 1,0,-1
EndSplineSet
Validated: 513
EndChar

StartChar: z (0)
Encoding: 122 122 74
Width: 500
GlyphClass: 1
Flags: W
LayerCount: 2
Fore
SplineSet
20 0 m 1,0,-1
 20 71 l 1,1,-1
 350 450 l 1,2,3
 293 447 293 447 250 447 c 2,4,-1
 39 447 l 1,5,-1
 39 519 l 1,6,-1
 463 519 l 1,7,-1
 463 460 l 1,8,-1
 182 131 l 1,9,-1
 128 71 l 1,10,11
 187 76 187 76 239 76 c 2,12,-1
 479 76 l 1,13,-1
 479 0 l 1,14,-1
 20 0 l 1,0,-1
EndSplineSet
Validated: 513
EndChar
